<?xml version="1.0" encoding="UTF-8"?>
<svg width="60px" height="46px" viewBox="0 0 60 46" version="1.1" xmlns="http://www.w3.org/2000/svg" xmlns:xlink="http://www.w3.org/1999/xlink">
    <title>Wall brick@3x</title>
    <g id="Page-1" stroke="none" stroke-width="1" fill="none" fill-rule="evenodd">
        <g id="Wall-brick" fill="#F5AF00" fill-rule="nonzero">
            <path d="M20,46 L1,46 C0.44771525,46 0,45.5522847 0,45 L0,34 C0,33.4477153 0.44771525,33 1,33 L20,33 C20.5522847,33 21,33.4477153 21,34 L21,45 C21,45.5522847 20.5522847,46 20,46 Z M2,44 L19,44 L19,35 L2,35 L2,44 Z" id="Shape"></path>
            <path d="M39,46 L20,46 C19.4477153,46 19,45.5522847 19,45 L19,34 C19,33.4477153 19.4477153,33 20,33 L39,33 C39.5522847,33 40,33.4477153 40,34 L40,45 C40,45.5522847 39.5522847,46 39,46 Z M21,44 L38,44 L38,35 L21,35 L21,44 Z" id="Shape"></path>
            <path d="M59,46 L39,46 C38.4477153,46 38,45.5522847 38,45 L38,34 C38,33.4477153 38.4477153,33 39,33 L59,33 C59.5522847,33 60,33.4477153 60,34 L60,45 C60,45.5522847 59.5522847,46 59,46 Z M40,44 L58,44 L58,35 L40,35 L40,44 Z" id="Shape"></path>
            <path d="M59,24 L40,24 C39.4477153,24 39,23.5522847 39,23 L39,12 C39,11.4477153 39.4477153,11 40,11 L59,11 C59.5522847,11 60,11.4477153 60,12 L60,23 C60,23.5522847 59.5522847,24 59,24 Z M41,22 L58,22 L58,13 L41,13 L41,22 Z" id="Shape"></path>
            <path d="M40,24 L21,24 C20.4477153,24 20,23.5522847 20,23 L20,12 C20,11.4477153 20.4477153,11 21,11 L40,11 C40.5522847,11 41,11.4477153 41,12 L41,23 C41,23.5522847 40.5522847,24 40,24 Z M22,22 L39,22 L39,13 L22,13 L22,22 Z" id="Shape"></path>
            <path d="M49,35 L30,35 C29.4477153,35 29,34.5522847 29,34 L29,23 C29,22.4477153 29.4477153,22 30,22 L49,22 C49.5522847,22 50,22.4477153 50,23 L50,34 C50,34.5522847 49.5522847,35 49,35 Z M31,33 L48,33 L48,24 L31,24 L31,33 Z" id="Shape"></path>
            <path d="M30,35 L11,35 C10.4477153,35 10,34.5522847 10,34 L10,23 C10,22.4477153 10.4477153,22 11,22 L30,22 C30.5522847,22 31,22.4477153 31,23 L31,34 C31,34.5522847 30.5522847,35 30,35 Z M12,33 L29,33 L29,24 L12,24 L12,33 Z" id="Shape"></path>
            <path d="M49,13 L30,13 C29.4477153,13 29,12.5522847 29,12 L29,1 C29,0.44771525 29.4477153,0 30,0 L49,0 C49.5522847,0 50,0.44771525 50,1 L50,12 C50,12.5522847 49.5522847,13 49,13 Z M31,11 L48,11 L48,2 L31,2 L31,11 Z" id="Shape"></path>
            <path d="M30,13 L11,13 C10.4477153,13 10,12.5522847 10,12 L10,1 C10,0.44771525 10.4477153,0 11,0 L30,0 C30.5522847,0 31,0.44771525 31,1 L31,12 C31,12.5522847 30.5522847,13 30,13 Z M12,11 L29,11 L29,2 L12,2 L12,11 Z" id="Shape"></path>
            <path d="M21,24 L1,24 C0.44771525,24 0,23.5522847 0,23 L0,12 C0,11.4477153 0.44771525,11 1,11 L21,11 C21.5522847,11 22,11.4477153 22,12 L22,23 C22,23.5522847 21.5522847,24 21,24 Z M2,22 L20,22 L20,13 L2,13 L2,22 Z" id="Shape"></path>
        </g>
    </g>
</svg>