<?xml version="1.0" encoding="UTF-8"?>
<svg width="33px" height="51px" viewBox="0 0 33 51" version="1.1" xmlns="http://www.w3.org/2000/svg" xmlns:xlink="http://www.w3.org/1999/xlink">
    <title>Group@3x</title>
    <g id="Page-1" stroke="none" stroke-width="1" fill="none" fill-rule="evenodd">
        <g id="Group" transform="translate(0.339230, 0.400000)" fill="#F5AF00" fill-rule="nonzero">
            <path d="M27.1,0 L5,0 C2.2,0 0,2.2 0,5 L0,45 C0,47.8 2.2,50 5,50 L27.1,50 C29.9,50 32.1,47.8 32.1,45 L32.1,5 C32.1,2.2 29.9,0 27.1,0 Z M30.1,45 C30.1,46.7 28.8,48 27.1,48 L5,48 C3.3,48 2,46.7 2,45 L2,5 C2,3.3 3.3,2 5,2 L27.1,2 C28.8,2 30.1,3.3 30.1,5 L30.1,45 Z" id="Shape"></path>
            <path d="M16.1,35.8 C13.8,35.8 11.9,37.7 11.9,40 C11.9,42.3 13.8,44.2 16.1,44.2 C18.4,44.2 20.3,42.3 20.3,40 C20.3,37.7 18.4,35.8 16.1,35.8 Z M16.1,42.2 C14.9,42.2 13.9,41.2 13.9,40 C13.9,38.8 14.9,37.8 16.1,37.8 C17.3,37.8 18.3,38.8 18.3,40 C18.3,41.2 17.3,42.2 16.1,42.2 Z" id="Shape"></path>
            <path d="M19.2,4.6 L12.8,4.6 C12.2,4.6 11.8,5 11.8,5.6 C11.8,6.2 12.2,6.6 12.8,6.6 L19.2,6.6 C19.8,6.6 20.2,6.2 20.2,5.6 C20.2,5 19.8,4.6 19.2,4.6 Z" id="Path"></path>
        </g>
    </g>
</svg>