<!--
  -
  -  * @project : DeliX
  -  * @created : 19/05/2024, 18:22
  -  * @modified : 19/05/2024, 18:22
  -  * @description : This file is part of the DeliX project.
  -  * @license : MIT License
  -
  -->

<svg xmlns="http://www.w3.org/2000/svg" width="21.901" height="25.149" viewBox="0 0 21.901 25.149">
    <defs>
        <style>
            .cls-1{fill:#767676}
        </style>
    </defs>
    <g id="sent" transform="translate(-33.062)">
        <path id="Path_61" d="M54.864 6.941l-.019-.032a1.187 1.187 0 0 0-.089-.153L51.258.706A1.419 1.419 0 0 0 50.033 0H37.992a1.419 1.419 0 0 0-1.226.708l-3.555 6.169a.738.738 0 0 0-.071.173 1.246 1.246 0 0 0-.078.434v15.931a1.735 1.735 0 0 0 1.738 1.734h18.43a1.735 1.735 0 0 0 1.733-1.733V7.425v-.064a.733.733 0 0 0-.099-.42zM44.775 1.474H50l2.752 4.758h-7.977zm-6.748 0H43.3v4.758h-8.016l2.743-4.758zm15.462 21.941a.259.259 0 0 1-.259.259H34.8a.259.259 0 0 1-.259-.259V7.706h18.948z" class="cls-1" />
        <path id="Path_62" d="M191.369 265.848a.737.737 0 0 0-1.042 0l-3.291 3.291-1.265-1.266a.737.737 0 0 0-1.042 1.042l1.787 1.787a.737.737 0 0 0 1.042 0l3.812-3.812a.737.737 0 0 0-.001-1.042z" class="cls-1"  transform="translate(-144.011 -252.584)"/>
    </g>
</svg>
