<?xml version="1.0" encoding="UTF-8"?>
<svg width="187px" height="49px" viewBox="0 0 187 49" version="1.1" xmlns="http://www.w3.org/2000/svg" xmlns:xlink="http://www.w3.org/1999/xlink">
    <title>Group@3x</title>
    <g id="Page-1" stroke="none" stroke-width="1" fill="none" fill-rule="evenodd">
        <g id="Group" transform="translate(0.800000, 0.700000)">
            <path d="M38.3,47.5 L28.3,47.5 L28.3,42.1 C28.3,41.6 27.9,41.2 27.4,41.2 L20.8,41.2 C20.3,41.2 19.9,41.6 19.9,42.1 L19.9,47.5 L9.9,47.5 L9.9,1.9 C10.1,0.9 10.9,0 12,0 L36.1,0 C37.2,0 38.1,0.8 38.2,1.8 L38.2,47.4 L38.2,47.4 L38.3,47.5 Z M33.5,4.7 L14.8,4.7 C14.4,4.7 14.1,5 14.1,5.4 L14.1,7.6 C14.1,8 14.4,8.3 14.8,8.3 L33.5,8.3 C33.9,8.3 34.2,8 34.2,7.6 L34.2,5.4 C34.2,5 33.9,4.7 33.5,4.7 L33.5,4.7 Z M33.5,34.4 L14.8,34.4 C14.4,34.4 14.1,34.7 14.1,35.1 L14.1,37.3 C14.1,37.7 14.4,38 14.8,38 L33.5,38 C33.9,38 34.2,37.7 34.2,37.3 L34.2,35.1 C34.2,34.7 33.9,34.4 33.5,34.4 L33.5,34.4 Z M33.5,28.5 L14.8,28.5 C14.4,28.5 14.1,28.8 14.1,29.2 L14.1,31.4 C14.1,31.8 14.4,32.1 14.8,32.1 L33.5,32.1 C33.9,32.1 34.2,31.8 34.2,31.4 L34.2,29.2 C34.2,28.8 33.9,28.5 33.5,28.5 L33.5,28.5 Z M33.5,22.6 L14.8,22.6 C14.4,22.6 14.1,22.9 14.1,23.3 L14.1,25.5 C14.1,25.9 14.4,26.2 14.8,26.2 L33.5,26.2 C33.9,26.2 34.2,25.9 34.2,25.5 L34.2,23.3 C34.2,22.9 33.9,22.6 33.5,22.6 L33.5,22.6 Z M33.5,16.7 L14.8,16.7 C14.4,16.7 14.1,17 14.1,17.4 L14.1,19.6 C14.1,20 14.4,20.3 14.8,20.3 L33.5,20.3 C33.9,20.3 34.2,20 34.2,19.6 L34.2,17.4 C34.2,17 33.9,16.7 33.5,16.7 L33.5,16.7 Z M33.5,10.8 L14.8,10.8 C14.4,10.8 14.1,11.1 14.1,11.5 L14.1,13.7 C14.1,14.1 14.4,14.4 14.8,14.4 L33.5,14.4 C33.9,14.4 34.2,14.1 34.2,13.7 L34.2,11.5 C34.2,11.1 33.9,10.8 33.5,10.8 L33.5,10.8 Z" id="Shape" fill="#F5AF00"></path>
            <path d="M40,9.4 L46,9.4 C47.2,9.4 48.2,10.4 48.2,11.6 L48.2,45.7 L48.2,45.7 L48.2,47.4 L40,47.4 L40,41.6 L43.6,41.6 C44,41.6 44.3,41.3 44.3,40.9 L44.3,38.7 C44.3,38.3 44,38 43.6,38 L40,38 L40,35.6 L43.6,35.6 C44,35.6 44.3,35.3 44.3,34.9 L44.3,32.7 C44.3,32.3 44,32 43.6,32 L40,32 L40,29.6 L43.6,29.6 C44,29.6 44.3,29.3 44.3,28.9 L44.3,26.7 C44.3,26.3 44,26 43.6,26 L40,26 L40,23.6 L43.6,23.6 C44,23.6 44.3,23.3 44.3,22.9 L44.3,20.7 C44.3,20.3 44,20 43.6,20 L40,20 L40,17.6 L43.6,17.6 C44,17.6 44.3,17.3 44.3,16.9 L44.3,14.7 C44.3,14.3 44,14 43.6,14 L40,14 L40,9.1 L40,9.1 L40,9.4 Z" id="Path" fill="#F5AF00"></path>
            <path d="M8.2,9.4 L2.2,9.4 C1,9.4 2.84217094e-14,10.4 2.84217094e-14,11.6 L2.84217094e-14,45.7 L2.84217094e-14,45.7 L2.84217094e-14,47.4 L8.2,47.4 L8.2,41.6 L4.6,41.6 C4.2,41.6 3.9,41.3 3.9,40.9 L3.9,38.7 C3.9,38.3 4.2,38 4.6,38 L8.2,38 L8.2,35.6 L4.6,35.6 C4.2,35.6 3.9,35.3 3.9,34.9 L3.9,32.7 C3.9,32.3 4.2,32 4.6,32 L8.2,32 L8.2,29.6 L4.6,29.6 C4.2,29.6 3.9,29.3 3.9,28.9 L3.9,26.7 C3.9,26.3 4.2,26 4.6,26 L8.2,26 L8.2,23.6 L4.6,23.6 C4.2,23.6 3.9,23.3 3.9,22.9 L3.9,20.7 C3.9,20.3 4.2,20 4.6,20 L8.2,20 L8.2,17.6 L4.6,17.6 C4.2,17.6 3.9,17.3 3.9,16.9 L3.9,14.7 C3.9,14.3 4.2,14 4.6,14 L8.2,14 L8.2,9.1 L8.2,9.1 L8.2,9.4 Z" id="Path" fill="#F5AF00"></path>
            <text id="Construction" font-family="RobotoCondensed-Regular, Roboto Condensed" font-size="24.99992" font-style="condensed" font-weight="normal" fill="#000000">
                <tspan x="61.2" y="34.3">Construction</tspan>
            </text>
        </g>
    </g>
</svg>