<?xml version="1.0" standalone="no"?>
<!DOCTYPE svg PUBLIC "-//W3C//DTD SVG 20010904//EN"
 "http://www.w3.org/TR/2001/REC-SVG-20010904/DTD/svg10.dtd">
<svg version="1.0" xmlns="http://www.w3.org/2000/svg"
 width="757.000000pt" height="291.000000pt" viewBox="0 0 757.000000 291.000000"
 preserveAspectRatio="xMidYMid meet">
<metadata>
Created by potrace 1.16, written by Peter Selinger 2001-2019
</metadata>
<g transform="translate(0.000000,291.000000) scale(0.100000,-0.100000)"
fill="#000000" stroke="none">
<path d="M2052 2879 c-56 -10 -60 -14 -68 -55 -3 -19 -14 -42 -23 -51 -15 -16
-15 -16 2 -10 16 6 17 -6 17 -174 0 -149 -3 -184 -16 -204 -9 -14 -21 -25 -27
-25 -5 0 -20 -11 -32 -24 -12 -13 -32 -27 -43 -31 -12 -3 -22 -11 -22 -16 0
-6 -4 -8 -8 -5 -5 3 -14 -3 -22 -14 -7 -10 -20 -16 -28 -12 -9 3 -13 1 -9 -4
3 -6 2 -16 -2 -23 -6 -10 -12 -8 -26 6 -13 12 -17 13 -13 3 7 -20 -10 -52 -24
-44 -7 4 -8 3 -4 -4 4 -7 1 -12 -8 -12 -9 0 -16 -4 -16 -9 0 -5 -10 -7 -22 -5
-13 2 -18 2 -11 -2 15 -7 6 -34 -12 -34 -6 0 -20 -9 -29 -19 -19 -21 -52 -24
-73 -8 -7 5 -13 6 -13 3 0 -4 -10 0 -22 8 -12 9 -32 16 -43 16 -11 0 -26 9
-32 19 -8 12 -19 17 -31 14 -10 -2 -36 5 -56 16 -21 12 -41 19 -46 16 -4 -3
-10 0 -12 6 -2 6 -26 15 -53 19 -43 7 -52 5 -67 -13 -17 -18 -23 -49 -19 -87
2 -13 1 -13 -8 0 -9 12 -11 9 -12 -15 -3 -66 3 -240 8 -248 3 -5 -1 -13 -8
-18 -11 -7 -10 -9 4 -9 12 0 17 -8 17 -30 0 -16 -3 -30 -7 -30 -5 -1 -28 -5
-53 -11 -55 -12 -133 -22 -178 -23 -20 -1 -31 -5 -28 -13 3 -6 -2 -17 -10 -23
-9 -8 -14 -31 -14 -64 0 -46 3 -53 31 -68 35 -20 79 -24 79 -7 0 8 14 10 40 6
22 -3 40 -1 40 4 0 5 21 9 48 9 26 0 42 -4 37 -8 -6 -4 -10 -17 -9 -30 2 -27
-24 -42 -37 -21 -7 11 -9 11 -9 -2 0 -11 -12 -18 -37 -22 -45 -8 -93 -52 -93
-86 0 -14 13 -39 28 -56 23 -26 34 -30 80 -30 28 -1 52 3 52 7 0 4 5 8 10 8 6
0 9 -18 8 -40 -3 -34 -6 -40 -23 -39 -11 1 -27 -1 -35 -4 -50 -18 -87 -27
-116 -27 -40 0 -84 -16 -105 -38 -37 -40 -32 -118 7 -128 13 -3 24 -10 24 -15
0 -12 48 -11 52 1 2 6 42 11 90 13 64 1 88 6 90 16 2 9 9 7 22 -8 20 -22 20
-22 0 -15 -14 4 -15 3 -5 -4 10 -7 10 -14 2 -30 -8 -15 -25 -22 -66 -27 -31
-4 -59 -5 -62 -1 -3 3 -11 2 -17 -3 -19 -15 -76 -24 -76 -11 0 7 -7 5 -16 -5
-11 -10 -29 -15 -50 -13 -25 2 -42 -4 -63 -23 -15 -14 -33 -23 -38 -22 -5 2
-7 -14 -5 -34 2 -29 1 -34 -7 -23 -9 13 -11 13 -11 -2 0 -10 4 -18 9 -18 5 0
11 -10 13 -22 2 -15 11 -24 25 -26 13 -2 20 -8 17 -16 -3 -9 4 -11 26 -8 16 2
30 7 30 11 0 4 8 7 18 8 101 9 137 14 141 22 4 5 17 9 31 9 14 -1 44 3 68 7
39 7 53 0 35 -19 -4 -4 -8 -17 -8 -29 0 -19 -5 -22 -35 -21 -19 1 -29 0 -22
-3 21 -8 13 -23 -11 -23 -35 0 -54 -28 -59 -88 -3 -30 -2 -48 2 -42 4 7 9 8
11 3 8 -18 77 -54 81 -42 2 7 20 13 39 14 18 1 42 6 52 10 12 5 34 0 61 -14
24 -11 49 -21 57 -21 21 0 -3 -16 -44 -30 -26 -8 -39 -19 -43 -36 -3 -13 -13
-24 -21 -24 -13 0 -13 3 -3 15 7 9 8 15 2 15 -13 0 -24 -28 -13 -34 5 -3 11
-24 15 -46 3 -23 10 -38 15 -35 5 3 15 -1 23 -8 15 -15 88 -30 88 -18 0 11
116 34 146 28 14 -2 39 2 56 11 44 21 108 23 138 4 14 -9 33 -16 42 -17 10 0
18 -3 18 -7 0 -5 0 -13 0 -18 0 -6 -18 -9 -45 -6 -25 2 -45 1 -45 -2 0 -4 -21
-8 -47 -10 -26 -2 -52 -7 -59 -13 -6 -5 -18 -7 -27 -4 -9 4 -29 -6 -50 -24
-29 -26 -34 -36 -30 -66 3 -30 1 -34 -14 -28 -10 4 -4 -6 13 -24 31 -30 108
-51 119 -33 3 4 22 10 42 12 21 3 45 8 55 12 11 5 18 2 21 -11 4 -17 5 -17 6
1 1 14 7 17 31 14 17 -3 30 -1 30 3 0 4 20 7 45 6 26 -1 47 3 49 10 6 15 65
10 78 -8 8 -11 9 -11 4 3 -4 14 3 18 32 23 20 3 51 9 67 14 17 5 45 9 63 10
30 1 122 59 130 82 2 5 12 9 23 9 13 0 17 -5 12 -17 -6 -15 -5 -16 9 -3 11 11
13 17 4 23 -7 5 -4 13 12 25 13 9 40 31 59 49 21 19 42 29 51 26 8 -4 13 -2
10 3 -3 5 3 17 14 27 10 9 18 14 18 10 0 -5 8 1 18 13 23 28 102 88 102 78 0
-5 7 1 15 13 10 14 21 20 32 16 11 -4 14 -3 9 6 -8 12 23 43 35 35 3 -2 12 8
19 21 13 24 14 24 32 8 17 -16 18 -16 12 0 -7 21 46 78 76 80 11 1 18 7 16 13
-6 15 19 25 41 17 11 -4 14 -3 9 6 -8 12 24 51 42 51 4 0 19 13 32 30 14 16
30 29 37 30 7 0 26 13 43 30 30 29 36 56 32 145 0 17 2 24 4 18 3 -7 10 -13
16 -13 6 0 4 8 -5 18 -24 26 -22 132 2 132 15 1 14 2 -1 13 -14 11 -16 40 -16
240 0 186 3 227 14 227 8 0 14 5 14 10 0 6 -6 10 -14 10 -12 0 -14 38 -14 230
0 188 3 230 14 230 8 0 14 5 14 10 0 6 -7 10 -15 10 -12 0 -14 24 -12 149 1
82 0 148 -3 147 -9 -5 -38 32 -32 40 4 4 -1 4 -11 1 -12 -4 -30 1 -47 13 -15
11 -30 17 -33 14 -3 -3 -10 4 -17 15 -6 12 -16 21 -23 21 -7 0 -6 -4 3 -10 26
-17 -8 -11 -43 7 -18 9 -40 18 -51 20 -10 2 -29 12 -43 23 -13 10 -30 17 -36
14 -7 -2 -42 10 -77 28 -36 17 -67 32 -70 33 -3 0 -9 3 -15 6 -5 4 -25 10 -42
14 -19 4 -33 13 -33 21 0 10 -6 13 -17 10 -10 -3 -31 1 -47 9 -15 8 -33 15
-40 15 -6 0 -28 9 -49 20 -20 11 -43 20 -51 20 -7 0 -19 7 -26 15 -7 8 -21 15
-31 15 -13 0 -17 5 -12 16 5 13 2 15 -17 9 -12 -4 -25 -3 -29 2 -3 5 -25 6
-49 2z m118 -66 c30 -14 125 -53 210 -88 252 -103 492 -204 540 -228 l45 -22
3 -761 2 -762 -57 -49 c-32 -27 -139 -111 -238 -186 -99 -75 -205 -156 -235
-180 -200 -156 -355 -270 -378 -277 -24 -8 -81 -17 -307 -50 -27 -4 -97 -15
-155 -25 -125 -21 -151 -21 -167 2 -30 40 5 101 60 105 15 1 27 6 27 11 0 4 3
6 8 4 4 -2 48 2 97 9 50 7 114 16 143 20 28 4 52 10 52 13 0 4 -28 17 -62 30
-35 14 -80 33 -100 43 -37 18 -40 18 -204 -12 -191 -34 -217 -36 -234 -14 -18
20 -17 71 1 89 8 8 49 20 92 27 42 6 77 15 77 20 0 4 -6 8 -12 8 -7 0 -51 18
-98 39 -69 32 -89 37 -114 30 -17 -5 -54 -9 -83 -9 -45 0 -55 4 -68 24 -15 22
-15 27 -1 54 14 28 53 43 116 46 12 1 15 15 15 66 0 74 7 70 -100 52 -33 -5
-96 -16 -140 -23 -44 -7 -83 -18 -87 -23 -10 -16 -61 17 -71 46 -5 13 -5 34 1
49 12 29 47 41 172 59 36 5 101 14 145 21 l81 12 2 63 2 64 -30 0 c-17 0 -30
-5 -30 -11 0 -5 -4 -8 -8 -5 -9 5 -157 -17 -183 -28 -19 -8 -69 36 -69 61 0
54 39 71 225 96 l90 12 -1 63 c-1 35 -4 65 -6 68 -3 2 -17 0 -32 -6 -15 -5
-47 -10 -71 -10 -37 0 -48 5 -61 25 -30 46 9 91 86 101 93 11 90 9 90 74 0 41
-4 60 -12 60 -7 0 -64 -8 -127 -17 l-114 -17 -18 23 c-23 28 -24 49 -5 77 11
16 38 24 118 38 57 9 114 20 128 24 l25 7 3 210 c2 177 5 212 19 227 9 10 22
18 29 18 15 0 300 -112 345 -136 27 -14 30 -12 155 84 69 53 156 118 191 144
113 82 103 51 103 300 0 218 0 219 24 243 22 22 28 23 62 13 21 -5 63 -21 94
-35z"/>
<path d="M2120 2546 l0 -154 56 -26 c48 -23 108 -48 289 -121 17 -6 48 -20 70
-30 72 -32 300 -125 307 -125 5 0 8 69 8 153 l0 153 -152 63 c-84 35 -227 94
-318 131 -91 38 -184 78 -207 89 -23 12 -45 21 -48 21 -3 0 -5 -69 -5 -154z
m76 102 c4 -7 3 -8 -4 -4 -8 5 -10 1 -6 -9 4 -9 13 -14 20 -11 24 9 73 -5 67
-19 -3 -10 2 -12 18 -8 15 4 20 3 15 -5 -5 -8 -2 -10 9 -6 9 4 23 -1 33 -9 9
-9 21 -16 27 -16 5 0 12 -8 16 -18 7 -17 8 -17 8 0 1 18 31 25 31 7 0 -5 7
-10 15 -10 8 0 15 -5 15 -11 0 -6 7 -8 17 -5 9 4 19 3 22 -2 11 -16 92 -52
116 -52 14 0 25 -4 25 -10 0 -5 6 -10 13 -10 6 -1 30 -9 52 -20 22 -11 50 -19
63 -20 12 0 22 -4 22 -10 0 -5 6 -10 14 -10 21 0 24 -16 25 -142 l2 -117 -58
16 c-32 9 -70 24 -84 34 -14 10 -28 16 -31 14 -3 -3 -18 1 -34 10 -16 8 -35
15 -41 15 -7 0 -13 7 -13 16 0 9 -6 14 -13 11 -8 -3 -27 1 -43 8 -16 7 -37 15
-46 19 -12 3 -15 11 -11 23 7 17 6 17 -12 0 -10 -11 -20 -14 -24 -9 -3 6 -19
14 -34 17 -15 4 -27 13 -27 20 0 8 -10 14 -22 14 -13 0 -33 1 -45 1 -13 0 -23
5 -23 10 0 6 -6 10 -12 10 -28 1 -104 46 -100 59 3 8 0 11 -6 7 -6 -4 -10 35
-10 114 -1 120 -1 120 23 120 13 0 27 -5 31 -12z"/>
<path d="M2025 2244 c-16 -14 -79 -63 -140 -109 -60 -47 -125 -98 -144 -114
-31 -27 -33 -31 -15 -37 10 -3 51 -19 89 -34 179 -73 271 -113 288 -128 15
-13 17 -36 17 -189 l0 -174 68 54 c37 29 93 73 126 98 32 24 94 71 136 104 43
33 111 85 151 116 41 31 83 65 94 76 11 10 35 28 53 38 17 11 32 22 32 25 0 6
-173 81 -415 181 -77 31 -171 71 -210 88 -85 37 -92 37 -130 5z m128 -27 c20
-7 34 -16 31 -20 -3 -3 3 -3 15 0 12 3 21 1 21 -5 0 -6 14 -13 30 -17 17 -4
30 -11 30 -16 0 -5 9 -9 21 -9 13 0 18 -4 13 -12 -5 -8 0 -9 14 -6 12 4 24 3
27 -2 3 -4 21 -11 40 -14 22 -4 35 -13 35 -22 0 -10 6 -13 18 -10 9 3 30 -1
46 -9 15 -8 35 -15 42 -15 8 0 14 -4 14 -10 0 -5 20 -15 45 -21 25 -6 45 -15
45 -19 0 -4 15 -11 34 -14 33 -6 72 -36 47 -36 -6 0 -27 -18 -47 -39 -24 -27
-41 -38 -52 -34 -10 4 -12 8 -4 11 7 2 12 8 12 14 0 7 -5 6 -14 -1 -8 -7 -12
-20 -9 -29 3 -12 -5 -23 -24 -32 -15 -8 -42 -29 -60 -47 -20 -21 -37 -31 -48
-27 -9 4 -15 3 -14 -2 4 -22 -2 -33 -15 -28 -7 3 -16 -1 -19 -9 -6 -16 -92
-77 -108 -77 -5 0 -8 -5 -7 -12 2 -6 -6 -16 -18 -22 -11 -6 -28 -18 -37 -26
-35 -32 -43 -36 -56 -32 -8 3 -11 0 -8 -5 8 -13 -5 -29 -30 -37 l-23 -7 1 144
c1 105 -2 150 -12 166 -13 21 -84 61 -109 61 -6 0 -18 7 -26 15 -9 8 -23 15
-32 15 -9 0 -44 14 -77 30 -33 16 -66 30 -72 30 -7 0 -21 7 -32 16 -17 15 -17
18 -2 33 9 10 22 15 30 13 8 -3 12 -1 8 4 -3 6 17 25 44 43 27 19 49 38 49 43
0 4 6 8 14 8 8 0 31 16 50 35 20 19 40 35 45 35 5 0 14 6 20 14 14 17 58 14
114 -7z"/>
<path d="M1270 1887 l0 -154 78 -33 c42 -18 111 -48 152 -66 41 -18 122 -51
180 -74 58 -22 119 -47 136 -55 94 -44 167 -75 172 -75 4 0 6 69 4 153 l-3
153 -47 24 c-26 12 -105 46 -177 75 -71 30 -166 69 -210 88 -86 37 -244 104
-270 113 -13 5 -15 -14 -15 -149z m88 92 c2 -5 21 -12 43 -15 21 -4 39 -10 39
-15 0 -4 16 -11 35 -15 19 -3 35 -10 35 -14 0 -5 14 -11 30 -15 17 -4 30 -10
30 -15 0 -4 16 -11 36 -15 20 -3 43 -13 51 -21 8 -8 23 -14 34 -14 11 0 27 -7
35 -15 9 -8 24 -15 34 -15 10 0 31 -7 46 -15 16 -8 37 -15 47 -15 9 0 17 -4
17 -9 0 -5 14 -12 30 -16 17 -4 30 -11 30 -16 0 -5 6 -9 14 -9 9 0 12 -7 9
-20 -3 -11 -12 -20 -21 -20 -8 0 -13 -3 -9 -6 10 -10 46 6 50 24 3 9 5 -40 6
-110 0 -71 -3 -128 -8 -128 -10 0 -74 25 -108 42 -12 6 -20 15 -16 21 3 5 -3
7 -14 3 -11 -4 -33 0 -49 9 -16 8 -32 15 -37 15 -4 0 -30 11 -59 25 -28 14
-57 25 -62 25 -6 1 -29 9 -51 20 -22 11 -47 20 -55 20 -10 1 -11 3 -2 7 21 8
13 26 -10 20 -12 -4 -27 -3 -32 2 -6 4 -32 14 -58 21 -26 7 -49 19 -52 27 -3
8 -10 11 -16 8 -5 -3 -10 -1 -10 5 0 7 -8 9 -19 5 -34 -10 -42 17 -40 132 1
59 4 112 6 116 6 10 67 -2 71 -14z"/>
<path d="M2776 1808 c-38 -29 -105 -81 -150 -116 -139 -108 -238 -184 -362
-277 -65 -49 -125 -95 -131 -102 -10 -9 -13 -110 -13 -438 l0 -426 128 97 c70
54 181 140 247 191 66 51 160 123 209 160 49 38 102 79 118 93 l29 25 -3 423
-3 424 -69 -54z m53 -115 c0 -79 -4 -121 -10 -112 -5 9 -9 10 -9 2 0 -6 4 -14
9 -18 6 -3 10 -106 10 -242 0 -149 -4 -232 -9 -223 -6 9 -10 10 -10 3 0 -6 5
-15 10 -18 17 -11 11 -61 -10 -80 -11 -10 -20 -14 -20 -9 0 5 -7 -2 -16 -15
-10 -14 -23 -21 -34 -18 -11 3 -17 0 -15 -7 2 -6 -15 -26 -37 -45 -33 -29 -41
-32 -50 -20 -8 12 -9 12 -6 -1 6 -19 -22 -50 -38 -43 -8 3 -14 0 -14 -6 0 -16
-37 -51 -55 -51 -8 0 -19 -9 -25 -20 -6 -11 -16 -17 -25 -14 -11 5 -13 2 -9
-10 3 -9 1 -16 -5 -16 -6 0 -11 7 -11 15 0 8 -5 15 -11 15 -6 0 -9 -9 -6 -20
6 -22 -16 -50 -39 -50 -8 0 -14 -5 -14 -11 0 -6 -10 -8 -22 -5 -13 3 -18 3
-11 0 16 -7 5 -34 -13 -34 -8 0 -17 -6 -20 -14 -3 -8 -12 -12 -20 -9 -9 3 -14
0 -12 -7 2 -8 -6 -18 -17 -24 -11 -6 -33 -23 -49 -39 -27 -25 -33 -28 -53 -26
-4 0 -10 -8 -14 -18 -4 -10 -7 166 -7 390 0 371 1 409 16 414 10 4 20 11 23
16 3 4 13 1 23 -8 9 -9 16 -12 16 -6 0 5 -4 12 -10 16 -13 8 -1 35 16 35 8 0
22 9 31 20 10 11 23 20 29 20 7 0 21 11 31 23 23 30 43 37 68 24 18 -9 19 -9
6 7 -12 15 -11 19 7 36 12 11 26 20 32 20 6 0 13 7 16 15 3 8 15 17 26 21 12
3 31 17 43 30 13 14 29 23 36 21 8 -2 11 -2 7 0 -14 8 17 30 36 25 16 -4 18
-1 14 16 -5 17 -1 23 18 28 13 3 24 10 24 15 0 5 8 13 18 16 9 4 33 23 54 44
20 20 45 40 56 43 11 4 23 13 26 21 3 8 10 15 16 15 7 0 10 -44 9 -127z"/>
<path d="M1270 1153 l0 -438 153 -61 c258 -105 450 -184 505 -210 29 -13 56
-24 60 -24 4 0 6 197 4 437 l-3 438 -142 59 c-78 33 -216 90 -307 128 -91 38
-184 77 -208 88 -23 11 -47 20 -52 20 -6 0 -10 -160 -10 -437z m32 410 c5 -12
69 -41 106 -48 17 -4 32 -10 32 -15 0 -4 15 -11 34 -14 19 -4 36 -12 38 -18 2
-6 15 -13 29 -15 32 -5 109 -41 109 -52 0 -4 14 -8 32 -9 18 0 37 -7 43 -14 5
-7 23 -14 39 -15 16 -1 32 -6 35 -11 3 -5 21 -13 39 -17 17 -3 32 -10 32 -15
0 -5 14 -11 30 -15 17 -4 30 -11 30 -16 0 -5 7 -9 16 -9 9 0 12 -5 8 -12 -5
-8 -2 -9 10 -5 15 6 16 -10 15 -193 -1 -172 -3 -203 -17 -217 -16 -16 -16 -16
1 -10 17 6 18 -5 16 -193 -1 -200 -1 -201 -23 -194 -11 4 -23 11 -24 15 -2 5
-21 12 -42 15 -27 5 -37 10 -33 20 4 10 0 12 -11 8 -9 -3 -16 -2 -16 4 0 5
-11 7 -25 4 -14 -2 -25 0 -25 6 0 6 -17 14 -37 18 -21 4 -40 10 -43 13 -3 4
-24 15 -47 25 -23 10 -40 23 -37 28 4 5 -2 9 -12 7 -11 -1 -32 3 -47 9 -16 7
-37 12 -48 12 -10 0 -19 6 -19 14 0 8 -11 14 -27 14 -15 0 -29 5 -31 11 -2 6
-11 11 -21 11 -9 0 -21 4 -27 9 -5 4 -30 14 -56 21 l-47 12 0 419 c1 364 5
446 21 412z"/>
<path d="M3293 2058 c5 -15 -2 -17 -66 -15 l-72 2 2 -183 c2 -131 0 -181 -8
-176 -8 4 -8 1 0 -13 13 -26 14 -476 1 -468 -6 3 -7 -1 -4 -9 3 -9 12 -16 18
-16 7 0 12 -11 11 -27 -1 -16 0 -20 2 -11 4 15 24 17 195 16 116 0 186 -3 177
-9 -11 -7 -11 -9 4 -9 9 0 17 4 17 8 0 5 18 9 40 10 35 2 40 -1 41 -21 1 -20
2 -20 6 -2 9 37 25 47 67 42 48 -5 148 12 158 26 3 6 27 10 52 10 25 0 46 4
46 9 0 4 -8 8 -17 9 -14 0 -13 2 5 9 12 5 40 27 61 49 21 22 42 37 46 33 5 -4
5 3 2 16 -3 12 -2 22 3 22 4 0 11 12 15 27 3 15 11 30 15 33 12 8 29 195 23
251 -4 32 -1 50 9 60 13 13 13 16 0 29 -14 13 -15 12 -9 -3 3 -9 2 -17 -3 -17
-6 0 -10 15 -10 33 0 25 3 29 11 17 9 -13 10 -13 6 0 -2 8 -11 14 -20 14 -9
-1 -18 9 -22 25 -4 14 -11 29 -17 32 -6 4 -10 18 -10 33 0 14 -5 23 -10 20 -6
-4 -22 7 -37 23 -14 16 -34 32 -44 36 -9 3 -17 14 -18 24 0 16 -1 16 -9 -2 -5
-11 -9 -14 -9 -8 -1 7 -19 16 -40 19 -25 4 -38 11 -35 18 3 9 -4 11 -26 8 -23
-3 -36 1 -52 19 -12 14 -19 17 -15 8 5 -14 -18 -16 -224 -16 -200 -1 -232 1
-246 16 -16 15 -16 15 -10 -1z m499 -52 c184 -33 276 -112 312 -266 43 -182
-6 -377 -114 -456 -105 -77 -207 -93 -577 -94 l-233 0 0 415 0 415 268 0 c181
-1 292 -5 344 -14z"/>
<path d="M3420 1604 l0 -217 175 6 c189 6 216 13 257 68 40 54 41 234 1 288
-42 55 -83 66 -265 69 l-168 4 0 -218z m383 164 c9 -9 22 -18 28 -20 6 -2 12
-18 13 -35 2 -18 9 -39 16 -48 9 -11 11 -34 7 -80 -12 -126 -53 -159 -210
-169 -55 -3 -67 -1 -67 11 0 11 -3 13 -13 5 -6 -6 -39 -12 -72 -14 l-60 -3 -2
188 -2 188 173 -3 c145 -3 175 -6 189 -20z"/>
<path d="M4250 2062 c0 -6 6 -13 13 -16 6 -3 -1 -5 -18 -3 l-30 3 2 -421 c1
-231 5 -430 8 -442 6 -25 -1 -24 218 -25 44 0 75 -4 71 -9 -3 -5 2 -9 10 -9 9
0 16 3 16 8 0 4 16 8 35 9 29 3 35 0 35 -17 0 -11 5 -20 10 -20 6 0 10 9 10
19 0 18 9 19 185 19 107 0 183 -4 179 -9 -3 -5 2 -9 10 -9 9 0 16 4 16 10 0 5
7 7 15 4 9 -4 15 0 15 9 0 8 7 20 15 27 12 10 15 10 15 0 0 -8 3 -10 7 -6 5 4
0 14 -10 21 -10 7 -14 16 -9 18 9 6 8 19 -4 125 -5 42 -11 62 -20 62 -8 0 -14
8 -14 17 0 13 -3 14 -12 5 -7 -7 -27 -12 -45 -12 -19 0 -33 5 -33 12 0 9 -3 9
-12 0 -15 -15 -51 -15 -66 0 -9 9 -12 9 -12 0 0 -8 -17 -12 -45 -12 -28 0 -45
4 -45 12 0 9 -3 9 -12 0 -17 -17 -198 -17 -198 0 0 9 -3 9 -12 0 -7 -7 -21
-12 -31 -12 -16 0 -17 3 -7 15 9 10 9 15 1 15 -6 0 -11 9 -11 20 0 19 7 19
193 19 300 0 291 -1 313 20 18 16 20 29 18 95 -1 52 2 76 9 76 8 0 7 4 -2 9
-7 5 -11 13 -7 19 11 18 -44 23 -285 23 l-239 1 0 28 0 29 277 0 c152 1 278 3
280 5 22 22 30 180 11 221 -13 29 -17 29 -182 26 -90 -2 -111 1 -127 15 -11 9
-19 12 -19 6 0 -6 6 -12 13 -15 6 -2 -94 -4 -223 -5 -198 0 -238 3 -252 16
-10 8 -18 10 -18 4z m790 -144 l0 -103 -285 3 -285 3 0 -61 0 -60 260 0 260 0
0 -90 0 -90 -260 0 -260 0 0 -60 0 -60 283 -2 282 -3 5 -103 5 -102 -407 0
-408 0 0 415 0 415 405 0 405 0 0 -102z"/>
<path d="M5210 2062 c0 -6 6 -13 13 -16 6 -3 -3 -4 -21 -3 -18 2 -37 -2 -43
-9 -7 -9 -13 -628 -8 -864 1 -13 25 -15 165 -13 98 1 162 -2 159 -8 -4 -5 1
-9 9 -9 9 0 16 3 16 8 0 4 16 8 35 9 24 2 35 -1 35 -11 0 -18 -27 -29 -33 -13
-3 7 -2 -7 0 -30 4 -29 2 -43 -6 -43 -6 0 -11 -15 -11 -32 0 -25 -3 -29 -10
-18 -7 11 -8 6 -4 -16 4 -21 1 -36 -9 -45 -15 -14 -11 -49 7 -61 20 -14 166
-9 166 5 0 8 4 7 10 -3 8 -11 9 -7 4 15 -8 35 -20 45 -52 45 -13 0 -20 4 -17
10 3 6 19 10 36 10 31 0 39 19 16 42 -8 7 -12 18 -10 24 2 6 -10 8 -32 6 -23
-3 -35 0 -35 8 0 7 17 11 48 10 26 -1 55 -1 65 -1 30 2 32 30 3 60 -24 25 -33
28 -72 23 -27 -3 -44 -1 -44 6 0 7 54 10 163 9 204 -2 197 -7 199 135 0 88 -2
103 -18 114 -11 8 -24 18 -31 23 -8 7 -13 7 -16 -2 -5 -16 -144 -19 -160 -2
-10 9 -15 9 -24 0 -12 -13 -186 -9 -191 5 -2 4 -16 1 -33 -7 -31 -15 -65 -11
-54 7 11 17 7 563 -3 591 -10 25 -12 25 -92 21 -67 -3 -85 -1 -101 14 -10 9
-19 12 -19 6z m193 -357 l2 -310 70 -1 c39 -1 157 -2 263 -3 l192 -1 0 -100 0
-100 -382 2 -383 3 -1 405 c0 223 1 409 4 413 2 4 55 6 118 5 l115 -3 2 -310z
m297 -621 c0 -11 -14 -14 -59 -14 -51 0 -61 -3 -66 -20 -9 -29 3 -41 38 -38
23 2 32 -2 35 -14 3 -14 -6 -17 -45 -20 -41 -3 -48 -6 -51 -25 -3 -21 0 -23
47 -23 39 0 51 -4 51 -15 0 -12 -14 -15 -70 -15 -82 0 -82 -1 -46 120 l22 75
64 5 c73 6 80 5 80 -16z"/>
<path d="M7136 2061 c-3 -5 0 -12 6 -15 7 -3 -1 -5 -19 -3 -18 2 -30 0 -28 -4
3 -4 -2 -12 -10 -19 -8 -7 -15 -19 -15 -26 0 -8 -5 -14 -10 -14 -6 0 -25 -22
-42 -50 -17 -27 -35 -47 -41 -43 -5 3 -8 0 -5 -8 2 -7 -6 -23 -19 -35 -13 -12
-23 -27 -23 -33 0 -7 -5 -9 -12 -5 -6 4 -8 3 -4 -4 3 -6 -3 -17 -15 -26 -12
-8 -18 -19 -15 -24 3 -6 -1 -13 -10 -16 -24 -9 -36 -7 -28 6 5 7 2 9 -8 6 -20
-8 -60 45 -52 67 4 10 2 14 -8 10 -16 -6 -51 38 -51 63 0 7 -6 11 -14 8 -7 -3
-13 0 -13 7 0 7 -14 26 -30 44 -17 18 -30 36 -30 40 0 4 -11 18 -24 31 -22 20
-35 22 -163 25 l-138 3 0 -42 c0 -23 2 -41 6 -38 9 5 59 -42 52 -49 -3 -3 5
-17 18 -31 33 -35 41 -46 67 -88 13 -20 27 -38 33 -40 5 -2 11 -13 12 -26 1
-12 6 -21 12 -18 6 2 22 -13 35 -33 14 -20 28 -38 31 -41 22 -16 9 -60 -34
-115 -4 -5 -16 -22 -28 -37 -11 -16 -27 -28 -35 -28 -8 0 -12 -4 -9 -10 3 -5
1 -10 -5 -10 -7 0 -10 -7 -7 -14 4 -11 1 -13 -10 -9 -9 4 -14 2 -10 -3 8 -13
-27 -67 -37 -57 -4 4 -4 1 -1 -8 3 -9 -12 -34 -42 -66 -45 -48 -50 -60 -44
-112 1 -10 10 -12 31 -7 17 3 30 1 30 -4 0 -5 14 -7 32 -3 22 4 29 3 24 -5 -4
-7 -1 -12 8 -12 9 0 16 3 16 8 0 4 16 8 35 9 29 3 35 0 35 -17 0 -11 5 -20 10
-20 6 0 10 9 10 20 0 11 7 20 15 20 8 0 15 5 15 10 0 6 7 10 15 10 8 0 15 5
15 10 0 6 11 21 25 34 14 13 25 27 25 32 0 5 14 22 30 38 16 16 32 37 35 47 4
11 11 19 16 19 5 0 9 6 9 13 0 7 9 20 20 30 11 9 20 24 20 32 0 8 7 15 15 15
8 0 15 6 15 14 0 17 34 31 50 21 8 -5 7 -12 -2 -23 -11 -13 -11 -15 3 -10 10
4 23 -6 38 -28 13 -19 27 -34 32 -34 5 0 9 -7 9 -15 0 -8 6 -15 14 -15 8 0 17
-11 20 -25 4 -14 11 -25 16 -25 6 0 10 -7 10 -15 0 -8 8 -23 18 -34 100 -107
91 -101 151 -101 31 -1 84 -2 118 -2 67 -2 93 11 93 46 0 12 -8 29 -17 37 -10
9 -25 26 -33 39 -8 12 -21 28 -27 36 -7 7 -13 17 -13 22 0 6 -15 26 -32 45
-18 18 -40 44 -48 57 -8 12 -23 33 -32 45 -10 13 -18 26 -18 30 0 4 -11 18
-24 30 -42 39 -48 59 -23 86 12 12 22 29 23 37 4 22 11 24 28 7 9 -9 16 -12
16 -6 0 5 -4 12 -9 16 -15 9 30 90 61 111 15 11 27 24 25 30 -1 7 10 23 26 37
15 15 27 31 27 37 0 6 5 8 12 4 8 -5 9 -2 5 9 -4 11 -1 17 9 17 8 0 14 6 12
14 -2 7 13 28 32 46 19 19 27 31 18 27 -13 -5 -18 -1 -18 12 0 17 -8 18 -112
14 -96 -4 -114 -2 -124 12 -7 9 -15 12 -18 6z m-441 -187 c136 -182 126 -169
153 -176 19 -5 36 12 127 135 58 78 113 152 123 165 16 22 21 23 148 20 l131
-3 -153 -205 c-85 -112 -154 -207 -154 -209 0 -3 8 -14 19 -25 33 -37 272
-356 277 -371 5 -13 -12 -15 -118 -15 -123 0 -125 0 -149 28 -39 42 -204 265
-212 285 -4 10 -17 17 -31 17 -19 0 -45 -29 -136 -150 -62 -83 -119 -158 -127
-166 -12 -12 -39 -15 -128 -13 -62 1 -118 -2 -124 -5 -26 -16 -7 22 42 88 30
39 62 83 73 97 10 14 54 72 97 128 43 57 74 108 71 114 -4 7 -72 98 -151 203
-78 105 -143 194 -143 197 0 4 58 7 128 7 l128 0 109 -146z"/>
<path d="M6023 2042 c-33 -5 -39 -45 -36 -209 2 -127 1 -142 -15 -146 -15 -4
-16 -5 0 -6 15 -1 17 -22 16 -236 -1 -207 -3 -235 -17 -238 -14 -4 -13 -5 2
-6 11 -1 17 -9 17 -26 0 -22 3 -24 30 -19 26 6 30 4 30 -15 0 -11 5 -21 10
-21 6 0 10 8 10 18 0 17 10 19 86 21 81 1 88 3 110 29 13 15 24 34 23 42 0 10
-3 8 -9 -5 -5 -12 -9 77 -9 217 0 136 4 240 10 243 5 4 9 14 8 23 0 14 -2 13
-9 -3 -6 -13 -9 46 -7 158 l2 177 -37 1 c-21 0 -73 1 -115 2 -43 1 -88 1 -100
-1z m227 -437 l0 -415 -120 0 -120 0 -2 405 c-2 223 -1 410 0 415 2 6 53 10
123 10 l119 0 0 -415z"/>
<path d="M687 1693 c-7 -6 -43 -11 -109 -14 -21 -1 -43 -8 -49 -15 -6 -8 -17
-14 -23 -14 -44 0 -63 -103 -25 -141 24 -24 106 -31 118 -10 4 7 12 11 17 10
5 -2 37 1 71 5 79 10 113 38 113 93 0 46 -8 60 -45 79 -29 15 -57 18 -68 7z
m77 -39 c9 -8 16 -31 16 -49 0 -53 -18 -61 -235 -92 -36 -5 -62 12 -70 48 -11
45 19 67 120 88 113 24 150 25 169 5z"/>
<path d="M861 1473 c0 -7 -10 -13 -21 -13 -11 0 -50 -6 -85 -12 -58 -11 -66
-16 -80 -45 -18 -38 -16 -116 3 -108 11 4 17 -8 13 -29 -1 -5 4 -6 12 -3 7 3
45 8 82 12 58 7 74 13 99 37 22 23 29 38 28 66 -1 27 1 33 8 22 5 -8 10 -10
10 -4 0 5 -7 19 -15 30 -9 12 -14 14 -15 6 0 -19 -26 8 -33 34 -2 10 -5 13 -6
7z m23 -76 c8 -21 7 -35 -5 -55 -12 -22 -26 -29 -83 -40 -76 -15 -88 -13 -111
21 -38 58 25 108 130 104 56 -2 60 -4 69 -30z"/>
<path d="M421 1428 c-1 -10 4 -18 10 -18 8 0 8 -4 -1 -15 -7 -8 -22 -14 -34
-14 -31 2 -108 -8 -130 -17 -11 -4 -22 -2 -28 7 -8 11 -9 10 -4 -3 4 -14 -1
-18 -24 -18 -41 0 -80 -44 -80 -90 0 -28 -3 -31 -22 -24 -20 6 -21 5 -6 -10 9
-9 24 -13 32 -10 11 4 16 0 16 -14 0 -11 6 -20 13 -19 44 1 66 -5 70 -20 4
-14 5 -14 6 3 1 18 7 22 43 22 22 1 44 5 47 10 3 6 47 13 96 16 59 4 83 3 70
-3 -11 -5 -15 -10 -8 -10 21 -2 43 11 43 24 0 15 53 11 58 -4 2 -6 11 -11 20
-10 14 0 13 3 -5 15 -22 16 -22 16 -3 37 13 14 20 35 20 63 0 34 -5 47 -27 64
-24 19 -36 21 -84 16 -51 -5 -59 -3 -72 17 -14 19 -16 19 -16 5z m177 -80 c9
-20 10 -32 1 -52 -14 -29 -13 -29 -139 -51 -52 -8 -115 -20 -140 -25 -112 -22
-127 -23 -149 -1 -27 27 -27 62 2 88 20 18 51 26 193 49 17 3 53 9 80 14 27 4
69 7 94 7 38 -2 47 -6 58 -29z"/>
<path d="M583 1167 c-3 -5 -21 -7 -39 -5 -19 2 -35 0 -37 -6 -2 -5 -21 -10
-43 -10 -39 -1 -73 -26 -74 -53 0 -7 -6 -10 -12 -8 -9 4 -13 -5 -14 -25 -1
-20 4 -30 13 -30 10 0 13 -8 10 -27 -2 -16 -2 -22 0 -15 4 11 7 10 16 -2 7 -9
27 -15 47 -15 73 0 131 7 144 18 7 6 39 12 71 15 48 3 63 9 81 29 20 24 42
122 29 135 -3 3 -5 -2 -5 -12 0 -16 -3 -15 -27 3 -21 18 -38 21 -90 19 -36 -2
-67 -7 -70 -11z m151 -26 c19 -16 21 -74 3 -89 -24 -20 -267 -67 -303 -58 -14
4 -26 16 -30 31 -3 14 -11 22 -16 19 -14 -9 18 50 34 64 8 6 48 16 89 22 99
14 132 19 136 23 8 9 73 0 87 -12z"/>
<path d="M6178 1093 c19 -8 14 -17 -16 -31 -23 -10 -29 -19 -29 -45 0 -17 -6
-52 -12 -77 -7 -25 -13 -63 -15 -85 -2 -39 -1 -41 25 -37 20 3 28 11 32 32 5
22 13 28 42 33 43 7 56 20 77 72 13 33 13 45 3 70 -7 17 -11 34 -7 39 3 5 -2
7 -11 3 -9 -3 -19 -2 -23 4 -3 5 -14 7 -24 4 -11 -3 -20 0 -24 10 -3 8 -11 15
-18 14 -10 0 -10 -2 0 -6z m83 -64 c14 -28 3 -85 -22 -110 -10 -10 -32 -19
-48 -19 -23 0 -31 -6 -40 -30 -23 -67 -42 -16 -21 59 5 20 14 55 20 79 11 42
11 42 55 42 35 0 47 -5 56 -21z"/>
<path d="M5880 1081 c12 -9 11 -11 -7 -11 -25 0 -27 -3 -37 -43 -4 -19 -3 -26
4 -22 6 4 9 -4 8 -19 -1 -14 -9 -27 -18 -29 -19 -5 -26 -62 -9 -73 7 -4 26 -8
43 -10 17 -1 25 0 18 3 -10 4 -10 8 -1 19 9 11 14 10 28 -7 15 -18 18 -19 39
-4 12 9 22 24 22 33 0 13 2 14 9 3 6 -9 9 -5 9 14 0 19 -3 23 -9 14 -8 -12
-10 -12 -18 0 -6 9 -2 20 11 33 11 11 17 26 14 35 -3 8 -6 22 -6 30 0 13 -8
15 -44 10 -36 -5 -43 -4 -42 10 0 9 -6 18 -14 20 -13 4 -13 3 0 -6z"/>
<path d="M6515 1080 c-3 -5 -19 -10 -34 -10 -34 0 -54 -21 -45 -45 4 -9 1 -20
-5 -25 -7 -4 -13 -31 -14 -61 l-2 -54 36 -1 c33 -2 36 0 32 25 -4 21 -2 23 7
11 10 -12 11 -12 5 5 -4 11 -8 27 -9 35 -1 18 34 26 44 10 12 -20 50 11 50 41
0 27 -27 59 -49 59 -7 0 -9 5 -6 10 3 6 4 10 1 10 -3 0 -8 -4 -11 -10z"/>
<path d="M7320 1081 c13 -9 12 -11 -6 -11 -33 0 -64 -36 -64 -75 0 -19 -4 -35
-9 -35 -13 0 -23 -34 -16 -53 6 -15 40 -29 80 -33 28 -2 55 33 55 73 0 18 4
33 9 33 5 0 15 16 21 35 6 19 16 35 22 35 6 0 8 3 4 7 -4 5 -14 -1 -22 -11
-11 -15 -14 -16 -14 -5 0 9 -12 22 -27 30 -38 19 -51 23 -33 10z"/>
<path d="M7041 1072 c-38 -6 -66 -42 -63 -79 2 -18 -1 -33 -6 -33 -6 0 -12
-18 -14 -39 l-3 -39 55 2 c67 2 101 29 107 85 7 77 -19 112 -76 103z"/>
<path d="M6714 1038 c-16 -18 -27 -41 -25 -52 1 -10 -3 -22 -9 -26 -14 -9 -6
-43 16 -65 30 -29 137 -5 118 27 -4 6 0 16 8 22 20 15 31 96 13 96 -7 0 -15 7
-19 15 -3 9 -18 15 -39 15 -25 0 -41 -8 -63 -32z"/>
<path d="M387 891 c5 -19 1 -21 -34 -21 -22 0 -55 -5 -73 -11 -25 -9 -34 -9
-40 0 -5 9 -9 8 -14 -4 -4 -11 -12 -15 -22 -11 -20 8 -84 -22 -84 -39 0 -7 -5
-15 -12 -17 -21 -7 -11 -78 14 -100 20 -18 32 -19 96 -14 65 6 72 5 73 -11 0
-14 2 -15 6 -3 12 30 32 43 48 30 9 -7 15 -8 15 -2 0 5 25 13 55 17 30 3 55
11 55 16 0 12 67 12 75 -1 10 -16 28 -11 21 6 -5 13 -1 14 26 8 27 -5 31 -4
21 7 -9 12 -7 19 11 34 16 14 21 27 18 47 -2 15 -8 28 -13 28 -5 0 -9 5 -9 11
0 6 -7 17 -15 26 -15 14 -83 14 -170 0 -11 -2 -28 3 -37 11 -15 12 -16 12 -11
-7z m223 -43 c13 -25 13 -31 0 -55 -12 -21 -26 -29 -60 -35 -25 -4 -76 -14
-115 -22 -284 -59 -308 -58 -313 10 -2 28 2 45 13 54 15 12 95 29 221 46 22 3
67 12 100 19 92 20 135 15 154 -17z"/>
<path d="M668 684 c-9 -9 -34 -18 -54 -20 -21 -1 -40 -7 -42 -13 -2 -6 -9 -11
-16 -11 -28 0 -51 -35 -51 -77 0 -22 3 -39 8 -36 4 2 7 -3 7 -11 0 -9 4 -16
10 -16 5 0 7 -8 4 -17 -4 -13 -3 -14 3 -5 5 7 17 10 26 6 16 -6 69 1 202 27
28 5 60 12 72 15 15 4 23 1 26 -13 4 -15 5 -14 6 4 0 12 6 25 11 28 6 3 10 15
10 25 0 10 7 25 15 33 13 13 13 16 0 27 -8 7 -15 17 -15 22 0 5 -8 17 -17 26
-19 20 -127 22 -146 3 -16 -16 -35 -14 -39 4 -3 14 -5 14 -20 -1z m206 -46
c17 -47 -2 -82 -49 -90 -22 -4 -77 -14 -123 -23 -115 -21 -147 -20 -166 7 -9
12 -16 32 -16 44 0 38 33 54 136 70 54 8 100 17 103 20 3 3 28 4 55 2 45 -3
52 -6 60 -30z"/>
<path d="M900 474 c0 -11 -6 -15 -20 -11 -11 3 -20 1 -20 -4 0 -5 -15 -9 -34
-9 -19 0 -38 -4 -41 -10 -3 -5 -25 -11 -48 -11 -73 -2 -102 -12 -105 -36 -2
-13 -9 -20 -16 -17 -16 6 -9 -63 9 -89 7 -10 11 -28 8 -40 -4 -19 -3 -20 9 -7
17 19 95 20 107 1 6 -9 11 -10 15 -2 4 6 1 11 -6 11 -8 0 -5 5 5 11 11 6 31 9
46 7 15 -2 33 2 40 9 6 7 27 13 45 13 18 0 58 5 87 11 30 7 64 12 76 13 12 0
19 3 17 5 -2 2 3 13 12 22 21 23 14 100 -10 124 -21 21 -135 23 -148 3 -5 -10
-8 -8 -8 5 0 9 -4 17 -10 17 -5 0 -10 -7 -10 -16z m174 -46 c15 -42 -3 -81
-39 -89 -17 -4 -77 -15 -135 -24 -58 -9 -127 -22 -155 -28 -27 -6 -57 -10 -65
-8 -45 9 -67 73 -35 104 7 8 36 18 62 21 71 11 247 47 252 52 3 3 28 4 55 2
45 -3 52 -6 60 -30z"/>
<path d="M441 387 c-1 -14 -8 -18 -28 -16 -16 1 -39 -3 -53 -9 -21 -8 -26 -18
-28 -52 -3 -47 15 -113 28 -105 5 3 11 1 14 -4 3 -5 14 -7 25 -4 10 2 26 -3
35 -13 17 -16 17 -16 14 2 -2 16 3 19 36 20 22 0 42 6 44 12 2 7 13 12 24 12
13 0 18 5 15 14 -3 8 0 20 8 26 10 8 14 8 17 -1 3 -8 9 -9 18 -4 10 6 8 10 -8
16 -15 6 -22 17 -22 33 0 14 -5 28 -11 31 -6 4 -8 13 -5 20 3 9 -2 11 -15 8
-14 -4 -18 -1 -14 9 5 12 -2 14 -39 8 -29 -4 -47 -3 -50 4 -2 6 -5 3 -5 -7z
m99 -37 c25 -25 26 -64 1 -89 -27 -27 -143 -38 -176 -17 -27 18 -32 52 -12 80
12 16 96 43 145 45 12 1 31 -8 42 -19z"/>
<path d="M1285 280 c-3 -5 -24 -10 -46 -10 -21 0 -39 -4 -39 -8 0 -4 -20 -7
-45 -7 -25 1 -45 -2 -45 -8 0 -6 -18 -7 -44 -4 -32 5 -46 3 -49 -7 -3 -8 -32
-16 -75 -20 -42 -4 -75 -13 -82 -21 -7 -8 -17 -12 -22 -9 -6 4 -8 -1 -4 -14 4
-11 2 -23 -4 -27 -12 -7 -14 -45 -2 -45 5 0 15 -18 22 -40 8 -24 16 -36 20
-29 5 8 10 8 14 1 4 -6 13 -9 21 -6 7 3 23 0 35 -6 20 -11 21 -10 11 9 -10 18
-8 20 26 20 21 0 61 5 88 12 28 7 73 12 102 13 28 1 49 5 46 10 -3 4 13 7 36
4 29 -2 41 0 41 9 0 7 8 13 18 13 25 0 51 34 60 78 8 34 5 40 -27 70 -37 34
-46 38 -56 22z m54 -49 c29 -53 -10 -98 -94 -111 -33 -5 -125 -20 -204 -34
-153 -26 -166 -25 -194 17 -15 23 -14 26 11 55 25 29 35 32 167 52 77 12 151
25 165 29 14 4 51 9 82 10 48 2 58 -1 67 -18z"/>
</g>
</svg>
