<?xml version="1.0" encoding="UTF-8"?>
<svg width="51px" height="43px" viewBox="0 0 51 43" version="1.1" xmlns="http://www.w3.org/2000/svg" xmlns:xlink="http://www.w3.org/1999/xlink">
    <title>Shape@3x</title>
    <g id="Page-1" stroke="none" stroke-width="1" fill="none" fill-rule="evenodd">
        <path d="M45.5392305,8.5 L42.5392305,8.5 L42.5392305,1.1 C42.5392305,0.5 42.1392305,0.1 41.5392305,0.1 L9.53923048,0.1 C8.93923048,0.1 8.53923048,0.5 8.53923048,1.1 L8.53923048,8.5 L5.53923048,8.5 C2.73923048,8.5 0.539230485,10.7 0.539230485,13.5 L0.539230485,37.5 C0.539230485,40.3 2.73923048,42.5 5.53923048,42.5 L45.5392305,42.5 C48.3392305,42.5 50.5392305,40.3 50.5392305,37.5 L50.5392305,13.5 C50.5392305,10.7 48.3392305,8.5 45.5392305,8.5 Z M10.5392305,2.1 L40.5392305,2.1 L40.5392305,16.2 L30.2392305,24.3 C27.3392305,22.5 23.6392305,22.5 20.7392305,24.3 L10.4392305,16.2 L10.4392305,2.1 L10.5392305,2.1 Z M48.5392305,37.5 C48.5392305,39.2 47.2392305,40.5 45.5392305,40.5 L5.53923048,40.5 C3.83923048,40.5 2.53923048,39.2 2.53923048,37.5 L2.53923048,13.5 C2.53923048,11.8 3.83923048,10.5 5.53923048,10.5 L8.53923048,10.5 L8.53923048,14.6 L8.13923048,14.3 C7.73923048,14 7.03923048,14 6.73923048,14.5 C6.43923048,14.9 6.43923048,15.6 6.93923048,15.9 L19.1392305,25.5 L6.93923048,35.1 C6.53923048,35.4 6.43923048,36.1 6.73923048,36.5 C6.93923048,36.7 7.23923048,36.9 7.53923048,36.9 C7.83923048,36.9 7.93923048,36.9 8.13923048,36.7 L21.1392305,26.4 C23.7392305,24.4 27.2392305,24.4 29.8392305,26.4 L42.8392305,36.7 C43.2392305,37 43.9392305,37 44.2392305,36.5 C44.5392305,36.1 44.5392305,35.4 44.0392305,35.1 L31.8392305,25.5 L44.0392305,15.9 C44.4392305,15.6 44.5392305,14.9 44.2392305,14.5 C43.9392305,14.1 43.2392305,14 42.8392305,14.3 L42.4392305,14.6 L42.4392305,10.5 L45.4392305,10.5 C47.1392305,10.5 48.4392305,11.8 48.4392305,13.5 L48.4392305,37.5 L48.5392305,37.5 Z" id="Shape" fill="#F5AF00" fill-rule="nonzero"></path>
    </g>
</svg>