<svg xmlns="http://www.w3.org/2000/svg" version="1.1" viewBox="-5.0 -10.0 110.0 135.0">
    <g>
        <path d="m13.801 40.102h-4.9023c-0.80078 0-1.5 0.69922-1.5 1.5 0 0.80078 0.69922 1.5 1.5 1.5h4.8984c0.80078 0 1.5-0.69922 1.5-1.5-0.097656-0.80078-0.69531-1.5-1.4961-1.5z"/>
        <path d="m13.801 46.398h-7.4023c-0.80078 0-1.5 0.69922-1.5 1.5 0 0.80078 0.69922 1.5 1.5 1.5h7.3008c0.80078 0 1.5-0.69922 1.5-1.5 0-0.79688-0.59766-1.5-1.3984-1.5z"/>
        <path d="m13.801 52.699h-9.8008c-0.80078 0-1.5 0.69922-1.5 1.5s0.69922 1.5 1.5 1.5h9.8008c0.80078 0 1.5-0.69922 1.5-1.5-0.10156-0.80078-0.69922-1.5-1.5-1.5z"/>
        <path d="m84.5 73.699c-1.1992 0-2.1992 1-2.1992 2.1992 0 1.1992 1 2.1992 2.1992 2.1992s2.1992-1 2.1992-2.1992c0.10156-1.1992-0.89844-2.1992-2.1992-2.1992z"/>
        <path d="m83.801 54.5c-0.39844-2.1992-1.1992-4.1016-2-5.8008h3.3008c0.80078 0 1.5-0.69922 1.5-1.5v-9.6992c0-0.80078-0.69922-1.5-1.5-1.5h-3.3008c-3 0-5.5 2.1016-6.1016 4.8008h-5.1992c0-0.19922 0.10156-0.39844 0.10156-0.60156 0-2.8008-2.3008-5-5.1016-5h-4.5l-4.1992-4.1992c-0.69922-0.69922-1.6016-1.3008-2.5-1.8008 2.3984-1.6016 4-4.3008 4-7.5 0-4.8984-4-8.8984-8.8984-8.8984-4.8984 0-8.8984 4-8.8984 8.8984 0 2.6992 1.1992 5 3 6.6992-2.8008 1-4.8984 3.6992-4.8984 6.8984v1.3008c-0.80078-0.39844-1.6016-0.60156-2.5-0.60156l-12.906 0.003906c-3 0-5.3984 2.3984-5.3984 5.3984v12.801c0 2.8008 2.1992 5.1016 4.8984 5.3984-1.3008 1.3008-2.3008 2.8984-2.8008 4.6992l-3.1992 12.102c-0.10156 0.39844 0 0.89844 0.30078 1.3008 0.30078 0.39844 0.69922 0.60156 1.1992 0.60156h5.8984c1.1016 5 5.5 8.8008 10.801 8.8008 5.3008 0 9.8008-3.8008 10.801-8.8008h20c2.6992 0 5.3008-0.80078 7.6016-2.1992 0.10156 6.1016 5.1016 11 11.199 11 6.1016 0 11.102-5 11.102-11.102 0-1.8008-0.39844-3.5-1.1992-5.1016 0.5 0 1 0 1.5 0.10156 0.39844 0 0.80078-0.10156 1.1016-0.39844 0.30078-0.30078 0.5-0.69922 0.5-1.1016-0.003906-5.6992-5.4023-14.199-13.703-15zm-2-15.398h1.8984v6.6992h-1.8984c-1.8984 0-3.3984-1.5-3.3984-3.3984-0.003906-1.9023 1.4961-3.3008 3.3984-3.3008zm-38.5-17.203c0-3.3008 2.6992-6 6-6s6 2.6992 6 6c0 3.3008-2.6992 6-6 6s-6-2.6992-6-6zm-22.602 32.402v-12.801c0-1.3984 1.1016-2.5 2.5-2.5h12.801c1.3984 0 2.5 1.1016 2.5 2.5v12.801c0 1.3984-1.1016 2.5-2.5 2.5h-12.801c-1.3008 0-2.5-1.1016-2.5-2.5zm14.301 29.801c-3.6992 0-6.8008-2.5-7.8984-5.8008h15.699c-1 3.3984-4.1016 5.8008-7.8008 5.8008zm-14.898-8.8008 2.6992-10.199c0.80078-3.1016 3.6016-5.3008 6.8008-5.3984h17.801l2.6992 15.602zm32.898 0-2.6016-15.602h2.5l3 14.398c0.10156 0.39844 0.30078 0.89844 0.5 1.3008h-3.3984zm9.8008-0.90234c-0.39844 0.5-1 0.80078-1.6992 0.89844-1.1992 0.10156-2.1992-0.69922-2.5-1.8008l-3.1016-15.496c-0.10156-0.69922-0.69922-1.1992-1.3984-1.1992h-9.3008c-1.8008 0-3.3008-1.5-3.3008-3.3008v-18.102c0-2.3984 2-4.3984 4.3984-4.3984h3.5c2 0 3.8984 0.80078 5.3008 2.1992l4.6016 4.6992c0.30078 0.30078 0.69922 0.39844 1 0.39844h5.1016c1.1992 0 2.1016 0.89844 2.1016 2.1016 0 1.1992-0.89844 2.1016-2.1016 2.1016h-5.5c-1.1016 0-2.1992-0.39844-3-1l-2.6992-2.1016c-0.39844-0.30078-1-0.39844-1.5-0.19922s-0.80078 0.69922-0.89844 1.1992l-0.80078 9c-0.10156 0.80078 0.5 1.5 1.3008 1.6016l4.6016 0.60156c1.6992 0.19922 3 1.5 3.3008 3.1992l3.1016 17.801c0.089844 0.69922-0.10938 1.2969-0.50781 1.7969zm5.3984 0.70312c-0.80078 0.19922-1.6016 0.19922-2.3984 0.19922h-0.10156c0.5-1 0.69922-2.1016 0.5-3.1992l-3.1016-17.801c-0.5-2.8984-2.8984-5.1992-5.8008-5.6016l-3.1992-0.39844 0.39844-4.8984 0.60156 0.39844c1.3984 1.1016 3.1016 1.6016 4.8008 1.6016h5.5c1.3984 0 2.6992-0.60156 3.6016-1.6016h2.1992c0.89844 0 1.6992 0.69922 1.6992 1.6992v16.5c0 3-0.80078 6-2.3008 8.6016zm16.301 9c-4.5 0-8.1992-3.6992-8.1992-8.1992 0-0.5 0.10156-1.1016 0.19922-1.6016 1.5-0.80078 3.1992-1.5 5.1016-2.1016 3.6016-1.1016 6.3984-1.3984 9.3008-1.3984 1.1016 1.3984 1.8008 3.1992 1.8008 5.1016 0.097656 4.4961-3.6016 8.1992-8.2031 8.1992zm-3.6992-14.703c-3.3984 1-6.1992 2.5-8.1016 3.6992l0.60156-1c1.6992-3.0977 2.5977-6.4961 2.5977-10.098v-16.5c1.8984 1.8984 4.5 5.3008 5.3008 10.602 0.10156 0.69922 0.69922 1.3008 1.5 1.3008 6.6016 0 10.898 6.1016 11.801 10.5-4.8008-0.20312-8.3984-0.003906-13.699 1.4961z"/>
    </g>
</svg>