<?xml version="1.0" encoding="UTF-8"?>
<svg width="47px" height="46px" viewBox="0 0 47 46" version="1.1" xmlns="http://www.w3.org/2000/svg" xmlns:xlink="http://www.w3.org/1999/xlink">
    <title>Shape@3x</title>
    <g id="Page-1" stroke="none" stroke-width="1" fill="none" fill-rule="evenodd">
        <path d="M31.3392305,7.6 C31.3392305,7.6 31.2392305,7.6 31.1392305,7.6 C31.0392305,7.6 31.0392305,7.6 30.9392305,7.6 L15.7392305,0 L0.439230485,7.7 L0.439230485,46 L15.7392305,38.3 L31.0392305,46 L46.3392305,38.3 L46.3392305,0 L31.1392305,7.6 L31.3392305,7.6 Z M16.8392305,2.8 L30.1392305,9.5 L30.1392305,43.4 L16.8392305,36.7 L16.8392305,2.8 Z M2.53923048,9 L14.8392305,2.8 L14.8392305,36.7 L2.53923048,42.9 L2.53923048,9 Z M44.5392305,37.2 L32.2392305,43.4 L32.2392305,9.5 L44.5392305,3.3 L44.5392305,37.2 Z" id="Shape" fill="#F5AF00" fill-rule="nonzero"></path>
    </g>
</svg>