<?xml version="1.0" encoding="UTF-8"?>
<svg width="54px" height="54px" viewBox="0 0 54 54" version="1.1" xmlns="http://www.w3.org/2000/svg" xmlns:xlink="http://www.w3.org/1999/xlink">
    <title>roll paint@3x</title>
    <g id="Page-1" stroke="none" stroke-width="1" fill="none" fill-rule="evenodd">
        <g id="roll-paint" transform="translate(0.000000, 0.000000)" fill="#F5AF00" fill-rule="nonzero">
            <path d="M47,20 L7,20 C5.34314575,20 4,18.6568542 4,17 L4,3 C4,1.34314575 5.34314575,0 7,0 L47,0 C48.6568542,0 50,1.34314575 50,3 L50,17 C50,18.6568542 48.6568542,20 47,20 L47,20 Z M7,2 C6.44771525,2 6,2.44771525 6,3 L6,17 C6,17.5522847 6.44771525,18 7,18 L47,18 C47.5522847,18 48,17.5522847 48,17 L48,3 C48,2.44771525 47.5522847,2 47,2 L7,2 Z" id="Shape"></path>
            <path d="M28,34 L26,34 L26,31.53 C26.0030815,30.1760843 26.912643,28.9920155 28.22,28.64 L52,22.23 L52,11 L48,11 L48,9 L52,9 C53.1045695,9 54.0000195,9.8954305 54.0000195,11 L54.0000195,22.23 C54.0039831,23.1375645 53.3963629,23.9340397 52.52,24.17 L28.74,30.57 C28.2907821,30.6906641 27.9840765,31.1051312 28,31.57 L28,34 Z" id="Path"></path>
            <path d="M6,13 L3,13 C1.34314575,13 0,11.6568542 0,10 C0,8.34314575 1.34314575,7 3,7 L6,7 L6,13 Z M3,9 C2.44771525,9 2,9.44771525 2,10 C2,10.5522847 2.44771525,11 3,11 L4,11 L4,9 L3,9 Z" id="Shape"></path>
            <path d="M27,54 C24.2385763,54 22,51.7614237 22,49 L22,32 L32,32 L32,49 C32,51.7614237 29.7614237,54 27,54 Z M24,34 L24,49 C24,50.6568542 25.3431458,52 27,52 C28.6568542,52 30,50.6568542 30,49 L30,34 L24,34 Z" id="Shape"></path>
            <path d="M32,34 L22,34 C21.4477153,34 21,33.5522847 21,33 C21,32.4477153 21.4477153,32 22,32 L32,32 C32.5522847,32 33,32.4477153 33,33 C33,33.5522847 32.5522847,34 32,34 Z" id="Path"></path>
            <path d="M9.5,35 C7.56700338,35 6,33.4329966 6,31.5 L6,18 L26,18 L26,20 C24.3431458,20 23,21.3431458 23,23 L23,26.5 C23,28.4329966 21.4329966,30 19.5,30 C17.5670034,30 16,28.4329966 16,26.5 C16.0018798,26.1018671 15.8432726,25.7197678 15.56,25.44 C15.1310264,25.0115594 14.4863158,24.8834836 13.926153,25.115426 C13.3659901,25.3473685 13.0005333,25.8937167 13,26.5 L13,31.5 C13,33.4329966 11.4329966,35 9.5,35 L9.5,35 Z M8,20 L8,31.5 C8,32.3284271 8.67157288,33 9.5,33 C10.3284271,33 11,32.3284271 11,31.5 L11,26.5 C11,24.5670034 12.5670034,23 14.5,23 C16.4329966,23 18,24.5670034 18,26.5 C18,27.3284271 18.6715729,28 19.5,28 C20.3284271,28 21,27.3284271 21,26.5 L21,23 C21,21.9181489 21.3508894,20.8654809 22,20 L8,20 Z" id="Shape"></path>
            <path d="M25.5,17 C23.5670034,17 22,15.4329966 22,13.5 L22,8.5 C21.9994667,7.89371669 21.6340099,7.34736849 21.073847,7.11542605 C20.5136842,6.88348361 19.8689736,7.01155939 19.44,7.44 C19.1567274,7.71976775 18.9981202,8.10186709 19,8.5 C19,10.4329966 17.4329966,12 15.5,12 C13.5670034,12 12,10.4329966 12,8.5 L12,5 C12,3.34314575 10.6568542,2 9,2 L9,0 L42,0 L42,2 C40.3431458,2 39,3.34314575 39,5 L39,10.5 C39,12.4329966 37.4329966,14 35.5,14 C33.5670034,14 32,12.4329966 32,10.5 L32,8.5 C32.0018798,8.10186709 31.8432726,7.71976775 31.56,7.44 C31.1310264,7.01155939 30.4863158,6.88348361 29.926153,7.11542605 C29.3659901,7.34736849 29.0005333,7.89371669 29,8.5 L29,13.5 C29,15.4329966 27.4329966,17 25.5,17 Z M20.5,5 C22.4329966,5 24,6.56700338 24,8.5 L24,13.5 C24,14.3284271 24.6715729,15 25.5,15 C26.3284271,15 27,14.3284271 27,13.5 L27,8.5 C27,6.56700338 28.5670034,5 30.5,5 C32.4329966,5 34,6.56700338 34,8.5 L34,10.5 C34,11.3284271 34.6715729,12 35.5,12 C36.3284271,12 37,11.3284271 37,10.5 L37,5 C37,3.91814893 37.3508894,2.86548085 38,2 L13,2 C13.6491106,2.86548085 14,3.91814893 14,5 L14,8.5 C14,9.32842712 14.6715729,10 15.5,10 C16.3284271,10 17,9.32842712 17,8.5 C16.9910259,7.56747919 17.3503837,6.66908466 18,6 C18.6653969,5.34472232 19.5662452,4.98438301 20.5,5 Z" id="Shape"></path>
        </g>
    </g>
</svg>