<?xml version="1.0" encoding="UTF-8"?>
<svg width="55px" height="54px" viewBox="0 0 55 54" version="1.1" xmlns="http://www.w3.org/2000/svg" xmlns:xlink="http://www.w3.org/1999/xlink">
    <title>Steamroller@3x</title>
    <g id="Page-1" stroke="none" stroke-width="1" fill="none" fill-rule="evenodd">
        <g id="Steamroller" fill="#F5AF00" fill-rule="nonzero">
            <path d="M44.0332769,54 C38.5104294,54 34.0332769,49.5228475 34.0332769,44 C34.0332769,38.4771525 38.5104294,34 44.0332769,34 C49.5561244,34 54.0332769,38.4771525 54.0332769,44 C54.0332769,49.5228475 49.5561244,54 44.0332769,54 Z M44.0332769,36 C39.6149989,36 36.0332769,39.581722 36.0332769,44 C36.0332769,48.418278 39.6149989,52 44.0332769,52 C48.4515549,52 52.0332769,48.418278 52.0332769,44 C52.0332769,39.581722 48.4515549,36 44.0332769,36 Z" id="Shape"></path>
            <path d="M44.0332769,49 C41.2718531,49 39.0332769,46.7614237 39.0332769,44 C39.0332769,41.2385763 41.2718531,39 44.0332769,39 C46.7947006,39 49.0332769,41.2385763 49.0332769,44 C49.0332769,46.7614237 46.7947006,49 44.0332769,49 Z M44.0332769,41 C42.3764226,41 41.0332769,42.3431458 41.0332769,44 C41.0332769,45.6568542 42.3764226,47 44.0332769,47 C45.6901311,47 47.0332769,45.6568542 47.0332769,44 C47.0332769,42.3431458 45.6901311,41 44.0332769,41 Z" id="Shape"></path>
            <path d="M35.0332769,29 L24.0332769,29 C23.6567187,28.9988587 23.3127271,28.7862797 23.1432769,28.45 L20.4132769,23 L15.0332769,23 C14.7185196,23 14.4221313,22.8518058 14.2332769,22.6 C14.047604,22.3506385 13.9884713,22.0291046 14.0732769,21.73 L18.9332769,4.73 C19.0577875,4.28476248 19.471273,3.982918 19.9332769,4 L35.0332769,4 C35.5855616,4 36.0332769,4.44771525 36.0332769,5 L36.0332769,28 C36.0332769,28.5522847 35.5855616,29 35.0332769,29 Z M24.6532769,27 L34.0332769,27 L34.0332769,6 L20.6432769,6 L16.3632769,21 L21.0332769,21 C21.4098351,21.0011413 21.7538266,21.2137203 21.9232769,21.55 L24.6532769,27 Z" id="Shape"></path>
            <path d="M50.0332769,23 L39.0332769,23 C38.4809921,23 38.0332769,22.5522847 38.0332769,22 L38.0332769,15 C38.0332769,14.4477153 38.4809921,14 39.0332769,14 L47.0332769,14 C49.2424159,14 51.0332769,15.790861 51.0332769,18 L51.0332769,22 C51.0332769,22.5522847 50.5855616,23 50.0332769,23 Z M40.0332769,21 L49.0332769,21 L49.0332769,18 C49.0332769,16.8954305 48.1378464,16 47.0332769,16 L40.0332769,16 L40.0332769,21 Z" id="Shape"></path>
            <path d="M47.0332769,16 L45.0332769,16 L45.0332769,7 C45.0332769,4.790861 46.8241379,3 49.0332769,3 L51.0332769,3 L51.0332769,5 L49.0332769,5 C47.9287074,5 47.0332769,5.8954305 47.0332769,7 L47.0332769,16 Z" id="Path"></path>
            <rect id="Rectangle" x="39.0332769" y="25" width="6" height="2"></rect>
            <rect id="Rectangle" x="39.0332769" y="29" width="6" height="2"></rect>
            <path d="M13.0332769,54.0000003 C12.6932769,54.0000003 12.3432769,54.0000003 12.0332769,54.0000003 C7.10275306,53.6322415 2.80765142,50.4994428 0.951313901,45.916941 C-0.905023617,41.3344393 -0.00121099739,36.0955988 3.28327687,32.4 C3.50327687,32.16 3.71327687,31.93 3.93327687,31.71 C4.15327687,31.49 4.41327687,31.26 4.65327687,31.06 C4.89327687,30.86 5.15327687,30.65 5.41327687,30.46 C5.67327687,30.27 5.92327687,30.11 6.21327687,29.93 L6.82327687,29.57 L7.04327687,29.45 L7.14327687,29.4 L7.77327687,29.1 L7.77327687,29.1 L8.03327687,29 L8.71327687,28.74 L8.85327687,28.65 L9.03327687,28.65 C9.2985729,28.5549051 9.56899839,28.4747791 9.84327687,28.41 L10.5932769,28.24 L11.1232769,28.15 L12.0332769,28 L12.3732769,28 C12.9425833,27.9602328 13.5139705,27.9602328 14.0832769,28 L14.3532769,28 L14.4832769,28 L14.8132769,28.05 L15.1032769,28.05 L15.6332769,28.15 L16.2432769,28.29 L16.4332769,28.35 L17.1032769,28.55 L17.3432769,28.55 L17.4832769,28.68 L18.0332769,29 C18.1142794,29.0223099 18.1917147,29.0559774 18.2632769,29.1 L18.5732769,29.24 L18.9332769,29.41 L19.1732769,29.54 C19.2866981,29.5871103 19.3941182,29.6475341 19.4932769,29.72 C19.7077807,29.8334118 19.9148643,29.960334 20.1132769,30.1 C20.1731765,30.1314108 20.2300799,30.1682306 20.2832769,30.21 C20.5344979,30.3708929 20.775004,30.5479322 21.0032769,30.74 C21.2222494,30.9021668 21.43254,31.07574 21.6332769,31.26 C21.7832769,31.39 21.9532769,31.56 22.1332769,31.73 L22.4332769,32.03 C22.5132769,32.11 22.6332769,32.25 22.7532769,32.4 C22.8680319,32.5160994 22.9749347,32.6397057 23.0732769,32.77 C23.2051212,32.9197752 23.3286405,33.0766781 23.4432769,33.24 C23.7032769,33.59 23.9432769,33.94 24.1732769,34.31 L24.2732769,34.49 L24.4732769,34.86 L24.5532769,35.01 L24.6532769,35.22 C24.7414291,35.3742386 24.8182967,35.5346581 24.8832769,35.7 C24.9432769,35.84 24.9932769,35.94 25.0332769,36.05 C25.0732769,36.16 25.1932769,36.45 25.2632769,36.66 C25.2943098,36.7271938 25.3177869,36.7976252 25.3332769,36.87 C25.4032769,37.06 25.4832769,37.31 25.5532769,37.58 L25.6132769,37.69 L25.6132769,39 L12.0332769,39 C10.9287074,39 10.0332769,39.8954305 10.0332769,41 C10.0332769,42.1045695 10.9287074,43 12.0332769,43 L25.9432769,43 L25.6232769,44.25 C24.1410216,49.9907507 18.9622986,54.0012789 13.0332769,54.0000003 Z M8.91327687,30.79 L8.91327687,30.79 L8.69327687,30.88 L8.06327687,31.17 L7.96327687,31.23 L7.83327687,31.3 L7.26327687,31.62 L6.60327687,32.07 C6.36327687,32.24 6.15327687,32.41 5.95327687,32.58 C5.75327687,32.75 5.53327687,32.95 5.34327687,33.13 L4.78327687,33.72 C2.00231404,36.8464063 1.23625056,41.279718 2.80628445,45.158126 C4.37631835,49.0365341 8.01075375,51.6883811 12.1832769,52 C12.4664251,52.0144826 12.7501286,52.0144826 13.0332769,52 C17.5658096,52.0012564 21.6350833,49.2222402 23.2832769,45 L12.0332769,45 C9.82413787,45 8.03327687,43.209139 8.03327687,41 C8.03327687,38.790861 9.82413787,37 12.0332769,37 L23.2832769,37 C23.2832769,36.94 23.2332769,36.87 23.2032769,36.8 L23.1132769,36.59 L23.0332769,36.46 C22.9914539,36.3529059 22.9413003,36.2492551 22.8832769,36.15 L22.7832769,35.95 L22.6832769,35.74 L22.5532769,35.52 L22.4532769,35.34 C22.2732769,35.04 22.0532769,34.73 21.8332769,34.43 C21.7555281,34.3190858 21.6720828,34.2122758 21.5832769,34.11 L21.5332769,34 C21.4712345,33.9073716 21.3972654,33.8233158 21.3132769,33.75 L21.2232769,33.64 C21.1652558,33.565371 21.1017461,33.495176 21.0332769,33.43 C20.9607628,33.3365076 20.8767693,33.2525141 20.7832769,33.18 C20.6032769,32.99 20.4532769,32.86 20.3132769,32.73 C20.1449831,32.5735311 19.968038,32.4266333 19.7832769,32.29 C19.5898858,32.1269703 19.3861249,31.9766548 19.1732769,31.84 L19.0332769,31.76 C18.8858875,31.6572345 18.7322585,31.5637212 18.5732769,31.48 L18.2532769,31.3 L18.0332769,31.22 L17.7132769,31.06 L17.4432769,30.94 L17.2732769,30.87 C17.110911,30.7930475 16.9439229,30.7262522 16.7732769,30.67 L16.7232769,30.67 L16.6532769,30.67 L16.4132769,30.59 C16.229963,30.5228254 16.042998,30.4660682 15.8532769,30.42 L15.6432769,30.36 L15.2232769,30.27 L14.8632769,30.2 L14.5932769,30.2 L14.4832769,30.2 L14.2732769,30.2 L14.0832769,30.2 L13.8632769,30.2 C13.3937694,30.1695691 12.9227843,30.1695691 12.4532769,30.2 L12.1732769,30.2 L12.0432769,30.2 L11.3032769,30.28 L10.9432769,30.34 L10.2532769,30.5 C10.0032769,30.56 9.77327687,30.63 9.53327687,30.71 L9.33327687,30.78 L8.91327687,30.79 Z" id="Shape"></path>
            <path d="M36.0332769,45 L27.0332769,45 L27.0332769,39 L23.6532769,39 L23.6532769,38.13 C23.5932769,37.9 23.5232769,37.67 23.4432769,37.45 C23.4184457,37.3882949 23.3983868,37.324775 23.3832769,37.26 L23.2032769,36.8 L23.1132769,36.59 L23.0332769,36.46 C22.9914539,36.3529059 22.9413003,36.2492551 22.8832769,36.15 L22.7832769,35.95 L22.6832769,35.74 L22.4532769,35.34 C22.2732769,35.04 22.0532769,34.73 21.8332769,34.43 C21.7555281,34.3190858 21.6720828,34.2122758 21.5832769,34.11 L21.5332769,34 C21.4712345,33.9073716 21.3972654,33.8233158 21.3132769,33.75 L21.2232769,33.64 C21.158252,33.5497074 21.0845693,33.4659771 21.0032769,33.39 C20.9380259,33.3119946 20.8642312,33.2415542 20.7832769,33.18 C20.6477101,33.0288148 20.5006006,32.8883922 20.3432769,32.76 C20.1662231,32.592224 19.9792173,32.4352727 19.7832769,32.29 C19.5898858,32.1269703 19.3861249,31.9766548 19.1732769,31.84 L19.0332769,31.76 C18.8858875,31.6572345 18.7322585,31.5637212 18.5732769,31.48 L18.3832769,31.36 L18.0332769,31.22 L17.7132769,31.06 L17.6332769,31 L17.5132769,31 L17.3032769,30.91 C17.140911,30.8330475 16.9739229,30.7662522 16.8032769,30.71 L16.7532769,30.71 L16.6832769,30.71 L16.4432769,30.63 C16.259963,30.5628254 16.072998,30.5060682 15.8832769,30.46 L15.6732769,30.4 L15.2532769,30.31 L14.8932769,30.24 L14.6232769,30.24 L14.1232769,30.17 L13.8932769,30.17 C13.6432769,30.17 13.3432769,30.17 13.0332769,30.17 L12.4832769,30.17 L12.2032769,30.17 L12.0732769,30.17 L11.3332769,30.25 L10.9332769,30.32 L10.2832769,30.47 C10.0332769,30.53 9.80327687,30.6 9.56327687,30.68 L9.36327687,30.75 L8.91327687,30.91 L8.91327687,30.91 L8.69327687,31 L8.06327687,31.29 L7.96327687,31.35 L7.83327687,31.42 L7.26327687,31.74 L6.60327687,32.19 C6.36327687,32.36 6.15327687,32.53 5.95327687,32.7 C5.75327687,32.87 5.53327687,33.07 5.34327687,33.25 L4.78327687,33.84 L3.03327687,35.64 L3.03327687,26 C3.03327687,23.2385763 5.27185312,21 8.03327687,21 L21.6532769,21 L24.6532769,27 L34.0332769,27 L34.0332769,6 L18.5732769,6 L18.9332769,4.73 C19.7316352,1.93373905 22.2852821,0.00422624318 25.1932769,0 L35.0332769,0 C37.7947006,0 40.0332769,2.23857625 40.0332769,5 L40.0332769,21 L54.0332769,21 L54.0332769,36 L44.0332769,36 C39.6149989,36 36.0332769,39.581722 36.0332769,44 L36.0332769,45 Z M29.0332769,43 L34.0332769,43 C34.5486967,37.8709871 38.8784962,33.9741675 44.0332769,34 L52.0332769,34 L52.0332769,23 L38.0332769,23 L38.0332769,5 C38.0332769,3.34314575 36.6901311,2 35.0332769,2 L25.1932769,2 C23.688706,2.00254522 22.2835771,2.7519473 21.4432769,4 L36.0332769,4 L36.0332769,29 L23.4132769,29 L20.4132769,23 L8.03327687,23 C6.37642262,23 5.03327687,24.3431458 5.03327687,26 L5.03327687,30.75 L5.41327687,30.46 C5.65327687,30.28 5.92327687,30.11 6.21327687,29.93 L6.82327687,29.57 L7.04327687,29.45 L7.14327687,29.4 L7.77327687,29.1 L7.77327687,29.1 L8.03327687,29 L8.71327687,28.74 L8.85327687,28.65 L9.03327687,28.65 C9.2985729,28.5549051 9.56899839,28.4747791 9.84327687,28.41 L10.5932769,28.24 L11.1132769,28.15 L12.0332769,28 L12.2932769,28 L13.0332769,28 C13.4232769,28 13.7732769,28 14.1332769,28 L14.4032769,28 L14.8632769,28.06 L15.1532769,28.06 L15.6832769,28.16 L16.2932769,28.3 L16.4832769,28.36 L17.1532769,28.56 L17.3932769,28.56 L17.5332769,28.69 L18.0332769,29 L18.2632769,29.09 L18.5832769,29.24 L18.9332769,29.41 C19.0370714,29.4558916 19.1373429,29.5093698 19.2332769,29.57 C19.3249658,29.6107404 19.4121124,29.6610173 19.4932769,29.72 C19.7077807,29.8334118 19.9148643,29.960334 20.1132769,30.1 C20.1731765,30.1314108 20.2300799,30.1682306 20.2832769,30.21 C20.5344979,30.3708929 20.775004,30.5479322 21.0032769,30.74 C21.2222494,30.9021668 21.43254,31.07574 21.6332769,31.26 C21.8149442,31.4142567 21.9885095,31.5778086 22.1532769,31.75 L22.4332769,32.03 C22.5232769,32.12 22.6432769,32.26 22.7532769,32.39 C22.8632769,32.52 22.9732769,32.64 23.0732769,32.77 C23.2051212,32.9197752 23.3286405,33.0766781 23.4432769,33.24 C23.7032769,33.59 23.9432769,33.94 24.1732769,34.31 L24.5532769,35.01 L24.6532769,35.22 C24.7414291,35.3742386 24.8182967,35.5346581 24.8832769,35.7 C24.9432769,35.84 24.9932769,35.94 25.0332769,36.05 C25.0732769,36.16 25.1932769,36.45 25.2632769,36.66 C25.2943098,36.7271938 25.3177869,36.7976252 25.3332769,36.87 C25.3332769,36.87 25.3332769,36.94 25.3332769,36.98 L29.0332769,36.98 L29.0332769,43 Z" id="Shape"></path>
            <path d="M28.0332769,45 L12.0332769,45 C9.82413787,45 8.03327687,43.209139 8.03327687,41 C8.03327687,38.790861 9.82413787,37 12.0332769,37 L28.0332769,37 C28.5855616,37 29.0332769,37.4477153 29.0332769,38 L29.0332769,44 C29.0332769,44.5522847 28.5855616,45 28.0332769,45 Z M12.0332769,39 C10.9287074,39 10.0332769,39.8954305 10.0332769,41 C10.0332769,42.1045695 10.9287074,43 12.0332769,43 L27.0332769,43 L27.0332769,39 L12.0332769,39 Z" id="Shape"></path>
        </g>
    </g>
</svg>