<?xml version="1.0" encoding="UTF-8"?>
<svg width="60px" height="42px" viewBox="0 0 60 42" version="1.1" xmlns="http://www.w3.org/2000/svg" xmlns:xlink="http://www.w3.org/1999/xlink">
    <title>Truck@3x</title>
    <g id="Page-1" stroke="none" stroke-width="1" fill="none" fill-rule="evenodd">
        <g id="Truck" fill="#F5AF00" fill-rule="nonzero">
            <path d="M50.47,30 L21,30 L21,6 L18,6 L18,3.55271368e-15 L26.62,3.55271368e-15 L29.62,6 L60,6 L60,18.36 L50.47,30 Z M23,28 L49.53,28 L58,17.64 L58,8 L28.38,8 L25.38,2 L20,2 L20,4 L23,4 L23,28 Z" id="Shape"></path>
            <rect id="Rectangle" x="28" y="11" width="2" height="14"></rect>
            <rect id="Rectangle" x="34" y="11" width="2" height="14"></rect>
            <rect id="Rectangle" x="40" y="11" width="2" height="14"></rect>
            <rect id="Rectangle" x="46" y="11" width="2" height="14"></rect>
            <rect id="Rectangle" x="52" y="11" width="2" height="8"></rect>
            <path d="M23,30 L1,30 L1,20 C1,17.790861 2.790861,16 5,16 L17,16 L17,10 L8.38,10 L9.11,8.55 C10.4946931,5.75368884 13.3496468,3.98873788 16.47,3.99994642 L23,3.99994642 L23,30 Z M3,28 L21,28 L21,5.9999821 L16.47,5.9999821 C14.7306096,5.99582695 13.0691987,6.7213339 11.89,8 L19,8 L19,18 L5,18 C3.8954305,18 3,18.8954305 3,20 L3,28 Z" id="Shape"></path>
            <path d="M19,18 L4.38,18 L9.38,8 L19,8 L19,18 Z M7.62,16 L17,16 L17,10 L10.62,10 L7.62,16 Z" id="Shape"></path>
            <path d="M19,18 L4.38,18 L9.38,8 L19,8 L19,18 Z M7.62,16 L17,16 L17,10 L10.62,10 L7.62,16 Z" id="Shape"></path>
            <path d="M7,26 L1,26 L1,20 L7,20 L7,26 Z M3,24 L5,24 L5,22 L3,22 L3,24 Z" id="Shape"></path>
            <path d="M45.06,34 L42.94,34 L42.71,33.33 C42.0030673,31.3349817 40.1165657,30.0012131 38,30 L38,28 L50,28 L50,30 C47.8834343,30.0012131 45.9969327,31.3349817 45.29,33.33 L45.06,34 Z M42.9,30 C43.3258418,30.4169767 43.695613,30.8875946 44,31.4 C44.304387,30.8875946 44.6741582,30.4169767 45.1,30 L42.9,30 Z" id="Shape"></path>
            <path d="M33.06,34 L18.94,34 L18.71,33.33 C18.0030673,31.3349817 16.1165657,30.0012131 14,30 L14,28 L38,28 L38,30 C35.8834343,30.0012131 33.9969327,31.3349817 33.29,33.33 L33.06,34 Z M20.32,32 L31.68,32 C32.0281892,31.2527707 32.5093487,30.5750813 33.1,30 L18.9,30 C19.4906513,30.5750813 19.9718108,31.2527707 20.32,32 Z" id="Shape"></path>
            <path d="M9.06,34 L0,34 L0,28 L14,28 L14,30 C11.8834343,30.0012131 9.99693272,31.3349817 9.29,33.33 L9.06,34 Z M2,32 L7.68,32 C8.02818925,31.2527707 8.50934871,30.5750813 9.1,30 L2,30 L2,32 Z" id="Shape"></path>
            <path d="M49.9999912,42 C46.1340068,42 42.9999912,38.8659932 42.9999912,35 C42.9987173,34.2020204 43.1374888,33.4100071 43.41,32.66 C44.4067685,29.8772252 47.0440935,28.0204872 49.9999912,28.0204872 C52.9559065,28.0204872 55.5932315,29.8772252 56.59,32.66 C56.8645486,33.4094615 57.0033843,34.2018408 57.0000604,35 C57.0000604,36.8565154 56.2625021,38.6369928 54.9497475,39.9497475 C53.6369928,41.2625021 51.8565154,42 49.9999912,42 L49.9999912,42 Z M50,30 C47.2385763,30 45,32.2385763 45,35 C45,37.7614237 47.2385763,40 50,40 C52.7614237,40 55,37.7614237 55,35 C54.9997188,34.4340891 54.9016075,33.8724864 54.71,33.34 C54.0064397,31.3410368 52.1191611,30.0027118 50,30 L50,30 Z" id="Shape"></path>
            <path d="M50,38.000012 C48.3431458,38.000012 47,36.6568542 47,35 C47,34.6586141 47.0610026,34.3199749 47.18,34 C47.6889108,32.5606021 49.1976639,31.7329755 50.685041,32.0773096 C52.172418,32.4216438 53.163971,33.8281019 52.9885549,35.3447053 C52.8131388,36.8613086 51.5267083,38.0042865 50,38.000012 Z M50,34 C49.5789699,34.0001791 49.2031502,34.2640526 49.06,34.66 C49.0215534,34.7692928 49.0012846,34.8841493 49,35 C49,35.5522847 49.4477153,36 50,36 C50.5522847,36 51,35.5522847 51,35 C50.9987218,34.8874065 50.9784365,34.7758375 50.94,34.67 C50.8002085,34.2701089 50.4236174,34.0016876 50,34 Z" id="Shape"></path>
            <path d="M38,38.000012 C36.3431458,38.000012 35,36.6568542 35,35 C35,34.6586141 35.0610026,34.3199749 35.18,34 C35.6889108,32.5606021 37.1976639,31.7329755 38.685041,32.0773096 C40.172418,32.4216438 41.163971,33.8281019 40.9885549,35.3447053 C40.8131388,36.8613086 39.5267083,38.0042865 38,38.000012 Z M38,34 C37.5789699,34.0001791 37.2031502,34.2640526 37.06,34.66 C37.0215534,34.7692928 37.0012846,34.8841493 37,35 C37,35.5522847 37.4477153,36 38,36 C38.5522847,36 39,35.5522847 39,35 C38.9987218,34.8874065 38.9784365,34.7758375 38.94,34.67 C38.8002085,34.2701089 38.4236174,34.0016876 38,34 Z" id="Shape"></path>
            <path d="M14,38.000012 C12.3431458,38.000012 11,36.6568542 11,35 C11,34.6586141 11.0610026,34.3199749 11.18,34 C11.6889108,32.5606021 13.1976639,31.7329755 14.685041,32.0773096 C16.172418,32.4216438 17.163971,33.8281019 16.9885549,35.3447053 C16.8131388,36.8613086 15.5267083,38.0042865 14,38.000012 Z M14,34 C13.5789699,34.0001791 13.2031502,34.2640526 13.06,34.66 C13.0215534,34.7692928 13.0012846,34.8841493 13,35 C13,35.5522847 13.4477153,36 14,36 C14.5522847,36 15,35.5522847 15,35 C14.9987218,34.8874065 14.9784365,34.7758375 14.94,34.67 C14.8002085,34.2701089 14.4236174,34.0016876 14,34 Z" id="Shape"></path>
            <path d="M37.9999912,42 C34.1340068,42 30.9999912,38.8659932 30.9999912,35 C30.9987173,34.2020204 31.1374888,33.4100071 31.41,32.66 C32.4067685,29.8772252 35.0440935,28.0204872 37.9999912,28.0204872 C40.9559065,28.0204872 43.5932315,29.8772252 44.59,32.66 C44.8645486,33.4094615 45.0033843,34.2018408 45.0000604,35 C45.0000604,36.8565154 44.2625021,38.6369928 42.9497475,39.9497475 C41.6369928,41.2625021 39.8565154,42 37.9999912,42 L37.9999912,42 Z M38,30 C35.2385763,30 33,32.2385763 33,35 C33,37.7614237 35.2385763,40 38,40 C40.7614237,40 43,37.7614237 43,35 C42.9997188,34.4340891 42.9016075,33.8724864 42.71,33.34 C42.0064397,31.3410368 40.1191611,30.0027118 38,30 L38,30 Z" id="Shape"></path>
            <path d="M13.9999912,42 C10.1340068,42 6.99999119,38.8659932 6.99999119,35 C6.99871725,34.2020204 7.13748882,33.4100071 7.41,32.66 C8.40676851,29.8772252 11.0440935,28.0204872 13.9999912,28.0204872 C16.9559065,28.0204872 19.5932315,29.8772252 20.59,32.66 C20.8645486,33.4094615 21.0033843,34.2018408 21.0000604,35 C21.0000604,36.8565154 20.2625021,38.6369928 18.9497475,39.9497475 C17.6369928,41.2625021 15.8565154,42 13.9999912,42 Z M14,30 C11.2385763,30 9,32.2385763 9,35 C9,37.7614237 11.2385763,40 14,40 C16.7614237,40 19,37.7614237 19,35 C18.9997188,34.4340891 18.9016075,33.8724864 18.71,33.34 C18.0064397,31.3410368 16.1191611,30.0027118 14,30 L14,30 Z" id="Shape"></path>
        </g>
    </g>
</svg>